<svg xmlns="http://www.w3.org/2000/svg" xmlns:xlink="http://www.w3.org/1999/xlink" viewBox="0 0 210 105"><defs><style>.cls-1{fill:#b9c8e6;}.cls-2{fill:#001f96;}.cls-3{fill:url(#radial-gradient);}.cls-4{fill:#fff;}.cls-5{fill:url(#Degradado_sin_nombre_5);}.cls-6{fill:url(#Degradado_sin_nombre_4);}.cls-7{fill:url(#Degradado_sin_nombre_12);}.cls-8{fill:url(#Degradado_sin_nombre_18);}.cls-9{fill:url(#Degradado_sin_nombre_18-2);}.cls-10{fill:url(#Degradado_sin_nombre_18-3);}</style><radialGradient id="radial-gradient" cx="84.5" cy="22.59" r="87.26" gradientUnits="userSpaceOnUse"><stop offset="0" stop-color="#00a0ff"/><stop offset="0.14" stop-color="#007ce4"/><stop offset="0.33" stop-color="#0050c2"/><stop offset="0.53" stop-color="#002da8"/><stop offset="0.7" stop-color="#001495"/><stop offset="0.87" stop-color="#000589"/><stop offset="1" stop-color="#000085"/></radialGradient><linearGradient id="Degradado_sin_nombre_5" x1="44.54" y1="56.07" x2="54.81" y2="63.51" gradientUnits="userSpaceOnUse"><stop offset="0" stop-color="#ff6400"/><stop offset="0.54" stop-color="#ff9c1c"/><stop offset="1" stop-color="#ffc832"/></linearGradient><linearGradient id="Degradado_sin_nombre_4" x1="10.22" y1="44.55" x2="22.47" y2="56.79" gradientUnits="userSpaceOnUse"><stop offset="0" stop-color="#006400"/><stop offset="0.77" stop-color="#4bc84b"/></linearGradient><linearGradient id="Degradado_sin_nombre_12" x1="-1172.23" y1="1385.25" x2="-1154.01" y2="1390.14" gradientTransform="matrix(0.91, 0.42, -0.42, 0.91, 1722.84, -708.53)" gradientUnits="userSpaceOnUse"><stop offset="0.14" stop-color="#d21ec8"/><stop offset="0.26" stop-color="#e538c8"/><stop offset="0.39" stop-color="#f44bc8"/><stop offset="0.51" stop-color="#fc56c8"/><stop offset="0.65" stop-color="#ff5ac8"/></linearGradient><linearGradient id="Degradado_sin_nombre_18" x1="45.08" y1="33.22" x2="58.72" y2="46.86" gradientUnits="userSpaceOnUse"><stop offset="0" stop-color="#a0d2ff"/><stop offset="0.18" stop-color="#a5d4ff"/><stop offset="0.4" stop-color="#b4dcff"/><stop offset="0.64" stop-color="#cde7ff"/><stop offset="0.9" stop-color="#eff8ff"/><stop offset="1" stop-color="#fff"/></linearGradient><linearGradient id="Degradado_sin_nombre_18-2" x1="18.66" y1="35.17" x2="32.64" y2="49.16" xlink:href="#Degradado_sin_nombre_18"/><linearGradient id="Degradado_sin_nombre_18-3" x1="66.93" y1="38.06" x2="77.82" y2="48.95" xlink:href="#Degradado_sin_nombre_18"/></defs><title>Logotipo INAEBA</title><g id="Capa_2" data-name="Capa 2"><g id="Capa_1-2" data-name="Capa 1"><path class="cls-1" d="M52.25,105a52.5,52.5,0,1,1,.5-105h105a52.5,52.5,0,0,1-.5,105Z"/><path class="cls-2" d="M114.93,39.16a2.86,2.86,0,0,1-.36.07,4,4,0,0,1-.48,0,1.91,1.91,0,0,1-.43,0,.69.69,0,0,1-.3-.13.57.57,0,0,1-.19-.26,1.27,1.27,0,0,1-.06-.43V32.91l.36-.06.48,0a2.58,2.58,0,0,1,.42,0,.88.88,0,0,1,.31.13.55.55,0,0,1,.18.26,1.1,1.1,0,0,1,.07.44Z"/><path class="cls-2" d="M119.34,36a.59.59,0,0,0-.18-.48.74.74,0,0,0-.49-.15,1.84,1.84,0,0,0-.41,0,1.13,1.13,0,0,0-.35.16V39.2l-.33.06a3.44,3.44,0,0,1-.46,0,2.54,2.54,0,0,1-.41,0,.66.66,0,0,1-.31-.13.62.62,0,0,1-.19-.25,1.22,1.22,0,0,1-.07-.42V35.34a.81.81,0,0,1,.12-.46,1.44,1.44,0,0,1,.33-.32,2.82,2.82,0,0,1,.89-.4,4,4,0,0,1,1.19-.16,2.85,2.85,0,0,1,1.81.51,1.75,1.75,0,0,1,.63,1.43V39.2l-.33.06a3.44,3.44,0,0,1-.46,0,2.54,2.54,0,0,1-.41,0,.66.66,0,0,1-.31-.13.62.62,0,0,1-.19-.25,1.22,1.22,0,0,1-.07-.42Z"/><path class="cls-2" d="M126.46,37.7a1.48,1.48,0,0,1-.59,1.24,2.93,2.93,0,0,1-1.75.44,5.13,5.13,0,0,1-.81-.06,2.55,2.55,0,0,1-.64-.19,1.24,1.24,0,0,1-.41-.33.75.75,0,0,1-.15-.47.82.82,0,0,1,.1-.42,1,1,0,0,1,.25-.28,3.67,3.67,0,0,0,.69.29,2.75,2.75,0,0,0,.9.13,1,1,0,0,0,.49-.09.28.28,0,0,0,.18-.25.28.28,0,0,0-.13-.23,1.15,1.15,0,0,0-.41-.13l-.32-.07a2.84,2.84,0,0,1-1.34-.55,1.35,1.35,0,0,1-.44-1.09,1.43,1.43,0,0,1,.16-.69,1.38,1.38,0,0,1,.47-.52,2.39,2.39,0,0,1,.72-.33,3.83,3.83,0,0,1,.93-.11,4.23,4.23,0,0,1,.73.06,1.88,1.88,0,0,1,.58.17,1,1,0,0,1,.4.29.74.74,0,0,1,.14.44.91.91,0,0,1-.09.41.76.76,0,0,1-.22.28l-.25-.11-.36-.1-.4-.08-.37,0a1.44,1.44,0,0,0-.53.08.25.25,0,0,0-.19.24.23.23,0,0,0,.11.19,1.07,1.07,0,0,0,.39.13l.32.08a3.09,3.09,0,0,1,1.42.62A1.39,1.39,0,0,1,126.46,37.7Z"/><path class="cls-2" d="M129.08,37.47a.42.42,0,0,0,.17.38.87.87,0,0,0,.49.12l.32,0a1.84,1.84,0,0,0,.29-.06,1.53,1.53,0,0,1,.16.25.86.86,0,0,1,.07.34.79.79,0,0,1-.3.64,1.62,1.62,0,0,1-1,.25,2.17,2.17,0,0,1-1.41-.41,1.68,1.68,0,0,1-.5-1.35V33.15l.33-.07a3.14,3.14,0,0,1,.45,0,1.42,1.42,0,0,1,.72.16.76.76,0,0,1,.25.68v.67h1.36a2.13,2.13,0,0,1,.12.29,1.12,1.12,0,0,1,.06.38.75.75,0,0,1-.16.52.57.57,0,0,1-.43.16h-.95Z"/><path class="cls-2" d="M131.43,32.75a.93.93,0,0,1,.26-.66,1.06,1.06,0,0,1,1.41,0,1,1,0,0,1,0,1.33,1,1,0,0,1-1.67-.67Zm1.85,6.45-.34,0a2.28,2.28,0,0,1-.45,0,2.54,2.54,0,0,1-.41,0,.66.66,0,0,1-.31-.13.62.62,0,0,1-.19-.25,1.22,1.22,0,0,1-.07-.42V34.23l.34-.06a3.42,3.42,0,0,1,.45,0,2.48,2.48,0,0,1,.41,0,.72.72,0,0,1,.31.12.6.6,0,0,1,.19.25,1,1,0,0,1,.07.43Z"/><path class="cls-2" d="M136.17,37.47a.4.4,0,0,0,.17.38.81.81,0,0,0,.48.12,1.73,1.73,0,0,0,.32,0,2,2,0,0,0,.3-.06,1.53,1.53,0,0,1,.16.25.86.86,0,0,1,.06.34.78.78,0,0,1-.29.64,1.65,1.65,0,0,1-1.05.25,2.13,2.13,0,0,1-1.4-.41,1.68,1.68,0,0,1-.5-1.35V33.15l.33-.07a3.14,3.14,0,0,1,.45,0,1.38,1.38,0,0,1,.71.16.76.76,0,0,1,.26.68v.67h1.36a2.13,2.13,0,0,1,.12.29,1.12,1.12,0,0,1,.06.38.71.71,0,0,1-.17.52.56.56,0,0,1-.43.16h-.94Z"/><path class="cls-2" d="M138.56,34.23l.33-.06a3.28,3.28,0,0,1,.46,0,2.48,2.48,0,0,1,.41,0,.68.68,0,0,1,.3.12.62.62,0,0,1,.2.25,1.27,1.27,0,0,1,.06.43V37.2a.78.78,0,0,0,.21.61.91.91,0,0,0,.61.18,1.38,1.38,0,0,0,.38,0,1.23,1.23,0,0,0,.24-.09V34.23l.33-.06a3.28,3.28,0,0,1,.46,0,2.48,2.48,0,0,1,.41,0,.77.77,0,0,1,.31.12.69.69,0,0,1,.19.25,1.24,1.24,0,0,1,.07.43v3.16a.84.84,0,0,1-.44.77,2.64,2.64,0,0,1-.87.35,4.69,4.69,0,0,1-1.1.12,4.22,4.22,0,0,1-1-.12,2.26,2.26,0,0,1-.81-.39,1.71,1.71,0,0,1-.54-.67,2.43,2.43,0,0,1-.18-1Z"/><path class="cls-2" d="M146.37,37.47a.42.42,0,0,0,.17.38A.87.87,0,0,0,147,38l.32,0a1.84,1.84,0,0,0,.29-.06,1.07,1.07,0,0,1,.16.25.71.71,0,0,1,.07.34.79.79,0,0,1-.3.64,1.6,1.6,0,0,1-1,.25,2.17,2.17,0,0,1-1.41-.41,1.68,1.68,0,0,1-.49-1.35V33.15a2.34,2.34,0,0,1,.32-.07,3.42,3.42,0,0,1,.46,0,1.41,1.41,0,0,1,.71.16.76.76,0,0,1,.25.68v.67h1.36a2.13,2.13,0,0,1,.12.29,1.12,1.12,0,0,1,.06.38.7.7,0,0,1-.16.52.57.57,0,0,1-.43.16h-.95Z"/><path class="cls-2" d="M154,36.68a3.19,3.19,0,0,1-.2,1.15,2.27,2.27,0,0,1-.55.85,2.57,2.57,0,0,1-.86.52,3.5,3.5,0,0,1-1.11.17,3,3,0,0,1-1.11-.19,2.35,2.35,0,0,1-.86-.53,2.29,2.29,0,0,1-.56-.85,3.21,3.21,0,0,1,0-2.23,2.38,2.38,0,0,1,.56-.85,2.35,2.35,0,0,1,.86-.53,3.34,3.34,0,0,1,2.22,0,2.62,2.62,0,0,1,.86.54,2.36,2.36,0,0,1,.55.85A3,3,0,0,1,154,36.68Zm-3.64,0a1.58,1.58,0,0,0,.25,1,.78.78,0,0,0,.68.34.76.76,0,0,0,.67-.34,1.76,1.76,0,0,0,.23-1,1.62,1.62,0,0,0-.24-1,.76.76,0,0,0-.67-.34.78.78,0,0,0-.68.34A1.62,1.62,0,0,0,150.35,36.68Z"/><path class="cls-2" d="M156.71,36.68a3.09,3.09,0,0,1,.21-1.19,2.3,2.3,0,0,1,.58-.84,2.36,2.36,0,0,1,.86-.49,3.32,3.32,0,0,1,1.06-.16,1.84,1.84,0,0,1,.41,0,1.65,1.65,0,0,1,.32.08V32.44l.33-.07a3.71,3.71,0,0,1,.47,0,2.54,2.54,0,0,1,.41,0,.72.72,0,0,1,.31.12.65.65,0,0,1,.19.26,1.17,1.17,0,0,1,.06.42v4.92a.87.87,0,0,1-.46.78,3.18,3.18,0,0,1-.78.35,3.66,3.66,0,0,1-1.1.15,3.53,3.53,0,0,1-1.21-.19,2.4,2.4,0,0,1-1.47-1.38A3.24,3.24,0,0,1,156.71,36.68Zm2.95-1.3a1.14,1.14,0,0,0-.86.32,1.4,1.4,0,0,0-.3,1,1.44,1.44,0,0,0,.28,1,1,1,0,0,0,.81.33.9.9,0,0,0,.34-.06.7.7,0,0,0,.23-.13V35.51A.89.89,0,0,0,159.66,35.38Z"/><path class="cls-2" d="M165.69,39.37a3.78,3.78,0,0,1-1.14-.17,2.62,2.62,0,0,1-.91-.51,2.28,2.28,0,0,1-.61-.87,3,3,0,0,1-.23-1.21,2.82,2.82,0,0,1,.23-1.18,2.21,2.21,0,0,1,.58-.81,2.35,2.35,0,0,1,.83-.47,3.15,3.15,0,0,1,1-.15,2.87,2.87,0,0,1,1,.17,2.49,2.49,0,0,1,.78.45,2.07,2.07,0,0,1,.51.7,2.13,2.13,0,0,1,.18.88.7.7,0,0,1-.19.54,1,1,0,0,1-.56.24l-2.56.39a.82.82,0,0,0,.47.51,1.73,1.73,0,0,0,.81.17,2.62,2.62,0,0,0,.8-.11,2.42,2.42,0,0,0,.62-.25.87.87,0,0,1,.28.29.7.7,0,0,1,.11.39.73.73,0,0,1-.43.7,2.2,2.2,0,0,1-.75.24A5.54,5.54,0,0,1,165.69,39.37Zm-.29-4.08a1.1,1.1,0,0,0-.43.08,1.14,1.14,0,0,0-.3.21,1.22,1.22,0,0,0-.17.29,1.3,1.3,0,0,0-.07.33l1.78-.29a.78.78,0,0,0-.81-.62Z"/><path class="cls-2" d="M114.45,43.75a2.19,2.19,0,0,1,.53-.2,3,3,0,0,1,.73-.09,2.65,2.65,0,0,1,.92.15.83.83,0,0,1,.51.47c.13.36.26.78.41,1.26s.29,1,.43,1.48.29,1,.43,1.5.26.94.36,1.32a.84.84,0,0,1-.37.23,1.78,1.78,0,0,1-.59.09,1.66,1.66,0,0,1-.42,0,.78.78,0,0,1-.29-.13.51.51,0,0,1-.17-.21,1.43,1.43,0,0,1-.12-.31l-.19-.72h-1.88c0,.21-.11.42-.17.64s-.11.44-.16.65l-.31.08a1.51,1.51,0,0,1-.39,0,1.36,1.36,0,0,1-.78-.18.59.59,0,0,1-.26-.5,1.54,1.54,0,0,1,0-.3c0-.09.06-.21.1-.34s.11-.42.2-.69.18-.58.29-.9.21-.66.33-1l.33-1c.1-.3.2-.57.29-.8S114.4,43.87,114.45,43.75Zm1.25,1.34-.33,1c-.12.36-.23.72-.33,1.09h1.29c-.1-.38-.2-.74-.3-1.1l-.27-1Z"/><path class="cls-2" d="M121.29,49.85l-.34,0a2.28,2.28,0,0,1-.45,0,2.54,2.54,0,0,1-.41,0,.62.62,0,0,1-.31-.13.54.54,0,0,1-.19-.25,1,1,0,0,1-.07-.42v-6l.34-.06a3.4,3.4,0,0,1,.45,0,2.54,2.54,0,0,1,.41,0,.77.77,0,0,1,.31.12.73.73,0,0,1,.19.26,1.22,1.22,0,0,1,.07.42Z"/><path class="cls-2" d="M122.42,44.81a2.08,2.08,0,0,1,.18-.91,1.73,1.73,0,0,1,.5-.63,1.91,1.91,0,0,1,.73-.35,3.26,3.26,0,0,1,.9-.12,2.48,2.48,0,0,1,1.13.2.74.74,0,0,1,.36.7.91.91,0,0,1-.08.37.88.88,0,0,1-.2.25,2.71,2.71,0,0,0-.41-.09,3.34,3.34,0,0,0-.49,0,1.37,1.37,0,0,0-.7.15.58.58,0,0,0-.25.53v.33h1.71a2.13,2.13,0,0,1,.12.29,1.13,1.13,0,0,1,0,.38.7.7,0,0,1-.16.52.56.56,0,0,1-.43.16h-1.19v3.3l-.33.06a3.44,3.44,0,0,1-.46,0,2.46,2.46,0,0,1-.41,0,.62.62,0,0,1-.31-.13.54.54,0,0,1-.19-.25,1,1,0,0,1-.07-.42Z"/><path class="cls-2" d="M129,44.65a4.08,4.08,0,0,1,1,.12,2.28,2.28,0,0,1,.79.34,1.52,1.52,0,0,1,.5.6,1.83,1.83,0,0,1,.18.84v2.33a.63.63,0,0,1-.15.44,1.31,1.31,0,0,1-.36.3,3.71,3.71,0,0,1-1.9.4,4.25,4.25,0,0,1-1-.1,2.29,2.29,0,0,1-.76-.31,1.46,1.46,0,0,1-.49-.53,1.54,1.54,0,0,1-.17-.75,1.4,1.4,0,0,1,.42-1.1,2.29,2.29,0,0,1,1.32-.48l1.37-.15v-.07a.45.45,0,0,0-.27-.43,1.73,1.73,0,0,0-.76-.13,3.87,3.87,0,0,0-.77.08,5,5,0,0,0-.68.21A.82.82,0,0,1,127,46a1,1,0,0,1-.09-.4.68.68,0,0,1,.13-.44,1.16,1.16,0,0,1,.4-.27,3.22,3.22,0,0,1,.71-.17A7.27,7.27,0,0,1,129,44.65Zm.08,4.09a2.87,2.87,0,0,0,.39,0,1.21,1.21,0,0,0,.32-.1v-.83l-.75.06a1.05,1.05,0,0,0-.48.13.33.33,0,0,0-.19.31.44.44,0,0,0,.16.34A.94.94,0,0,0,129,48.74Z"/><path class="cls-2" d="M132.54,43.09l.33-.07a3.71,3.71,0,0,1,.47,0,2.54,2.54,0,0,1,.41,0,.72.72,0,0,1,.31.12.73.73,0,0,1,.19.26,1.25,1.25,0,0,1,.06.42v1a2.7,2.7,0,0,1,.49-.15,4.07,4.07,0,0,1,.52,0,2.5,2.5,0,0,1,.94.18,2.29,2.29,0,0,1,1.33,1.35,3.15,3.15,0,0,1,.2,1.15,3.24,3.24,0,0,1-.2,1.18,2.31,2.31,0,0,1-.57.84,2.35,2.35,0,0,1-.89.5A3.53,3.53,0,0,1,135,50a3.61,3.61,0,0,1-1.16-.16,2.78,2.78,0,0,1-.81-.4,1,1,0,0,1-.46-.83ZM135,48.63a.92.92,0,0,0,.75-.33,1.54,1.54,0,0,0,.26-1,1.48,1.48,0,0,0-.27-1A.89.89,0,0,0,135,46a1.25,1.25,0,0,0-.36,0,1.28,1.28,0,0,0-.32.12v2.26a1,1,0,0,0,.27.12A1.18,1.18,0,0,0,135,48.63Z"/><path class="cls-2" d="M141.32,50a3.49,3.49,0,0,1-1.14-.17,2.39,2.39,0,0,1-1.52-1.37,3.09,3.09,0,0,1-.23-1.22,2.82,2.82,0,0,1,.23-1.18,2.34,2.34,0,0,1,.58-.81,2.4,2.4,0,0,1,.84-.47,3.09,3.09,0,0,1,.95-.15,2.87,2.87,0,0,1,1,.17,2.29,2.29,0,0,1,.78.45,2.07,2.07,0,0,1,.51.7,2.16,2.16,0,0,1,.18.88.7.7,0,0,1-.19.54.93.93,0,0,1-.55.24l-2.57.39a.84.84,0,0,0,.47.51,1.73,1.73,0,0,0,.81.17,2.62,2.62,0,0,0,.8-.11,2.28,2.28,0,0,0,.62-.25.86.86,0,0,1,.28.29.75.75,0,0,1,.12.4.74.74,0,0,1-.44.69,2.2,2.2,0,0,1-.75.24A5.54,5.54,0,0,1,141.32,50ZM141,45.94a1.1,1.1,0,0,0-.43.08,1,1,0,0,0-.3.22.92.92,0,0,0-.17.29,1.14,1.14,0,0,0-.07.32l1.78-.29a.78.78,0,0,0-.23-.41A.75.75,0,0,0,141,45.94Z"/><path class="cls-2" d="M146.12,48.12a.45.45,0,0,0,.17.39,1,1,0,0,0,.49.11l.32,0a1.14,1.14,0,0,0,.29-.06,1.07,1.07,0,0,1,.16.25.74.74,0,0,1,.07.34.79.79,0,0,1-.3.64,1.6,1.6,0,0,1-1,.25,2.17,2.17,0,0,1-1.41-.41,1.68,1.68,0,0,1-.49-1.35V43.8l.32-.07a3.44,3.44,0,0,1,.46,0,1.31,1.31,0,0,1,.71.16c.17.1.25.33.25.68v.66h1.36a1,1,0,0,1,.12.29,1.12,1.12,0,0,1,.06.38.7.7,0,0,1-.16.52.57.57,0,0,1-.43.16h-.95Z"/><path class="cls-2" d="M148.47,43.4a.9.9,0,0,1,.27-.66.93.93,0,0,1,.7-.27.94.94,0,0,1,.7.27,1,1,0,0,1,0,1.33.94.94,0,0,1-.7.27.93.93,0,0,1-.7-.27A.9.9,0,0,1,148.47,43.4Zm1.85,6.45-.34,0a2.22,2.22,0,0,1-.45,0,2.54,2.54,0,0,1-.41,0,.66.66,0,0,1-.31-.13.62.62,0,0,1-.19-.25,1.25,1.25,0,0,1-.06-.42V44.88l.33-.06a3.4,3.4,0,0,1,.45,0,2.67,2.67,0,0,1,.42,0,.68.68,0,0,1,.3.12.57.57,0,0,1,.19.26,1,1,0,0,1,.07.42Z"/><path class="cls-2" d="M151.62,49.86a1,1,0,0,1-.26-.35.92.92,0,0,1-.1-.44.86.86,0,0,1,.1-.41,1.52,1.52,0,0,1,.24-.38l1.79-2.1h-1.92a1.36,1.36,0,0,1-.11-.29,1.23,1.23,0,0,1-.06-.39.7.7,0,0,1,.16-.52.57.57,0,0,1,.43-.16h3.27a1.13,1.13,0,0,1,.27.34,1.06,1.06,0,0,1,.1.45,1,1,0,0,1-.1.41,2.26,2.26,0,0,1-.25.38l-1.74,2.1h2a1.7,1.7,0,0,1,.12.29,1.52,1.52,0,0,1,.05.38.73.73,0,0,1-.16.53.61.61,0,0,1-.43.16Z"/><path class="cls-2" d="M158.52,44.65a4,4,0,0,1,1,.12,2.2,2.2,0,0,1,.79.34,1.64,1.64,0,0,1,.51.6,1.83,1.83,0,0,1,.17.84v2.33a.63.63,0,0,1-.15.44,1.43,1.43,0,0,1-.35.3,3.77,3.77,0,0,1-1.91.4,4.37,4.37,0,0,1-1-.1,2.38,2.38,0,0,1-.76-.31,1.55,1.55,0,0,1-.49-.53,1.66,1.66,0,0,1-.17-.75,1.37,1.37,0,0,1,.43-1.1,2.24,2.24,0,0,1,1.32-.48l1.36-.15v-.07a.45.45,0,0,0-.27-.43,1.7,1.7,0,0,0-.76-.13,3.94,3.94,0,0,0-.77.08,4.82,4.82,0,0,0-.67.21.72.72,0,0,1-.23-.28,1,1,0,0,1-.1-.4.74.74,0,0,1,.13-.44,1.16,1.16,0,0,1,.4-.27,3.31,3.31,0,0,1,.72-.17A7.09,7.09,0,0,1,158.52,44.65Zm.08,4.09a2.87,2.87,0,0,0,.39,0,1.21,1.21,0,0,0,.32-.1v-.83l-.75.06a1.13,1.13,0,0,0-.48.13.33.33,0,0,0-.18.31.41.41,0,0,0,.16.34A.93.93,0,0,0,158.6,48.74Z"/><path class="cls-2" d="M164.94,46a1.33,1.33,0,0,0-.49.09,1.06,1.06,0,0,0-.41.24,1.28,1.28,0,0,0-.27.4,1.4,1.4,0,0,0-.11.56,1.25,1.25,0,0,0,.37,1,1.36,1.36,0,0,0,.9.32,1.73,1.73,0,0,0,.54-.07,3.19,3.19,0,0,0,.41-.16,1,1,0,0,1,.31.32.76.76,0,0,1,.1.41.73.73,0,0,1-.4.66,2.22,2.22,0,0,1-1.12.23,3.42,3.42,0,0,1-1.19-.19,2.75,2.75,0,0,1-.91-.54,2.41,2.41,0,0,1-.59-.84,2.85,2.85,0,0,1-.2-1.08,3,3,0,0,1,.22-1.2,2.28,2.28,0,0,1,.61-.84,2.36,2.36,0,0,1,.89-.5,3.36,3.36,0,0,1,1.06-.17,2.12,2.12,0,0,1,1.16.27.81.81,0,0,1,.31,1.07,1.69,1.69,0,0,1-.22.29,4,4,0,0,0-.43-.16A1.8,1.8,0,0,0,164.94,46Z"/><path class="cls-2" d="M167.13,43.4a.9.9,0,0,1,.27-.66.94.94,0,0,1,.7-.27.93.93,0,0,1,.7.27,1,1,0,0,1,0,1.33.93.93,0,0,1-.7.27.94.94,0,0,1-.7-.27A.9.9,0,0,1,167.13,43.4ZM169,49.85l-.33,0a2.32,2.32,0,0,1-.46,0,2.63,2.63,0,0,1-.41,0,.59.59,0,0,1-.3-.13.48.48,0,0,1-.19-.25,1,1,0,0,1-.07-.42V44.88l.34-.06a3.29,3.29,0,0,1,.45,0,2.54,2.54,0,0,1,.41,0,.68.68,0,0,1,.3.12.59.59,0,0,1,.2.26,1.17,1.17,0,0,1,.06.42Z"/><path class="cls-2" d="M175.33,47.33a3.19,3.19,0,0,1-.19,1.15,2.42,2.42,0,0,1-.56.85,2.33,2.33,0,0,1-.86.52,3.5,3.5,0,0,1-1.11.17,3.23,3.23,0,0,1-1.11-.18,2.62,2.62,0,0,1-.86-.54,2.27,2.27,0,0,1-.55-.85,3.21,3.21,0,0,1,0-2.23,2.3,2.3,0,0,1,1.41-1.38,3,3,0,0,1,1.11-.19,3.23,3.23,0,0,1,1.11.19,2.52,2.52,0,0,1,.86.54,2.62,2.62,0,0,1,.56.85A3,3,0,0,1,175.33,47.33Zm-2.4-5.2a1.29,1.29,0,0,1,.79.2.65.65,0,0,1,.24.5.73.73,0,0,1-.14.45,1.37,1.37,0,0,1-.48.36l-1.34.71a.8.8,0,0,1-.53-.25.65.65,0,0,1-.22-.47.61.61,0,0,1,.06-.25.64.64,0,0,1,.21-.23Zm-1.23,5.2a1.65,1.65,0,0,0,.24,1,.78.78,0,0,0,.68.34.75.75,0,0,0,.67-.34,2.06,2.06,0,0,0,0-1.93.8.8,0,0,0-.68-.34.79.79,0,0,0-.67.34A1.66,1.66,0,0,0,171.7,47.33Z"/><path class="cls-2" d="M179.4,46.66a.59.59,0,0,0-.18-.48.78.78,0,0,0-.5-.15,1.45,1.45,0,0,0-.41.06,1,1,0,0,0-.35.15v3.61l-.32.06a3.59,3.59,0,0,1-.47,0,2.54,2.54,0,0,1-.41,0,.59.59,0,0,1-.3-.13.56.56,0,0,1-.2-.25,1.25,1.25,0,0,1-.06-.42V46a.81.81,0,0,1,.12-.46,1.38,1.38,0,0,1,.32-.32,3.19,3.19,0,0,1,.89-.4,4.08,4.08,0,0,1,1.19-.16,2.77,2.77,0,0,1,1.81.52,1.73,1.73,0,0,1,.63,1.42v3.26l-.32.06a3.59,3.59,0,0,1-.47,0,2.54,2.54,0,0,1-.41,0,.59.59,0,0,1-.3-.13.56.56,0,0,1-.2-.25,1.25,1.25,0,0,1-.06-.42Z"/><path class="cls-2" d="M185.12,48.57l-.24-.58c-.09-.22-.18-.46-.27-.74s-.19-.59-.29-1-.21-.77-.32-1.23a1.47,1.47,0,0,1,.39-.26,1.33,1.33,0,0,1,.54-.11,1.11,1.11,0,0,1,.6.15.89.89,0,0,1,.35.57l.82,2.86h0c.09-.24.17-.49.25-.77s.16-.56.23-.86.15-.59.22-.88.12-.59.17-.87a1.74,1.74,0,0,1,.82-.2,1.11,1.11,0,0,1,.6.16.59.59,0,0,1,.24.54,4.26,4.26,0,0,1-.07.65c0,.24-.12.51-.2.78s-.17.57-.28.86-.22.58-.33.87-.24.55-.37.8a7,7,0,0,1-.36.68q-.3.51-.54.84a3.33,3.33,0,0,1-.48.5,1.39,1.39,0,0,1-.46.25,1.85,1.85,0,0,1-.48.07,1,1,0,0,1-.7-.26,1.09,1.09,0,0,1-.32-.68,8.38,8.38,0,0,0,.66-.57c.22-.22.42-.43.6-.65a1.17,1.17,0,0,1-.38-.25A2.59,2.59,0,0,1,185.12,48.57Z"/><path class="cls-2" d="M113.11,55.18a.9.9,0,0,1,1-1h3.42a1,1,0,0,1,.13.3,1.34,1.34,0,0,1,.06.4.78.78,0,0,1-.17.56.61.61,0,0,1-.45.17h-2.19v1h2.33a1,1,0,0,1,.13.3,1.23,1.23,0,0,1,.06.39.74.74,0,0,1-.17.56.6.6,0,0,1-.44.16h-1.91v1.1h2.67a1.47,1.47,0,0,1,.13.3,1.6,1.6,0,0,1,0,.39.76.76,0,0,1-.17.57.61.61,0,0,1-.45.17h-3a.9.9,0,0,1-1-1Z"/><path class="cls-2" d="M118.45,58a3.12,3.12,0,0,1,.21-1.19,2.36,2.36,0,0,1,.57-.83,2.51,2.51,0,0,1,.87-.5,3.62,3.62,0,0,1,1.06-.16,1.84,1.84,0,0,1,.41,0,1.12,1.12,0,0,1,.32.09V53.74l.33-.06a2.42,2.42,0,0,1,.47,0,2.54,2.54,0,0,1,.41,0,.66.66,0,0,1,.31.13.52.52,0,0,1,.18.25,1,1,0,0,1,.07.42V59.4a.91.91,0,0,1-.46.78,3.19,3.19,0,0,1-.78.34,3.69,3.69,0,0,1-1.1.16,3.75,3.75,0,0,1-1.21-.19,2.65,2.65,0,0,1-.91-.54,2.47,2.47,0,0,1-.56-.85A3,3,0,0,1,118.45,58Zm3-1.3a1.11,1.11,0,0,0-.86.33,1.37,1.37,0,0,0-.3,1,1.47,1.47,0,0,0,.28,1,1,1,0,0,0,.81.32,1.21,1.21,0,0,0,.34-.05,1.17,1.17,0,0,0,.23-.13V56.81A1,1,0,0,0,121.4,56.68Z"/><path class="cls-2" d="M124.76,55.53l.33-.06a3.33,3.33,0,0,1,.46,0,2.54,2.54,0,0,1,.41,0,.68.68,0,0,1,.3.12.65.65,0,0,1,.2.26,1.25,1.25,0,0,1,.06.42V58.5a.76.76,0,0,0,.21.61.91.91,0,0,0,.61.18,1.38,1.38,0,0,0,.38,0,1.33,1.33,0,0,0,.24-.08V55.53l.33-.06a3.33,3.33,0,0,1,.46,0,2.54,2.54,0,0,1,.41,0,.77.77,0,0,1,.31.12.73.73,0,0,1,.19.26,1.22,1.22,0,0,1,.07.42v3.16a.87.87,0,0,1-.44.78,2.88,2.88,0,0,1-.87.35,4.69,4.69,0,0,1-1.1.12,4.21,4.21,0,0,1-1-.13,2.25,2.25,0,0,1-.81-.38,1.74,1.74,0,0,1-.53-.67,2.35,2.35,0,0,1-.19-1Z"/><path class="cls-2" d="M133.65,56.69a1.37,1.37,0,0,0-.49.09,1.2,1.2,0,0,0-.41.24,1.28,1.28,0,0,0-.27.4,1.4,1.4,0,0,0-.1.56,1.23,1.23,0,0,0,.36,1,1.36,1.36,0,0,0,.9.32,1.73,1.73,0,0,0,.54-.07,2.7,2.7,0,0,0,.41-.16,1.16,1.16,0,0,1,.31.32.76.76,0,0,1,.1.41.73.73,0,0,1-.4.66,2.22,2.22,0,0,1-1.12.23,3.42,3.42,0,0,1-1.19-.19,2.85,2.85,0,0,1-.91-.54,2.31,2.31,0,0,1-.58-.83,2.75,2.75,0,0,1-.21-1.09,3,3,0,0,1,.22-1.2,2.28,2.28,0,0,1,.61-.84,2.6,2.6,0,0,1,.89-.5,3.36,3.36,0,0,1,1.06-.17,2.09,2.09,0,0,1,1.16.27.81.81,0,0,1,.31,1.07,1.3,1.3,0,0,1-.22.29,4,4,0,0,0-.43-.16A1.8,1.8,0,0,0,133.65,56.69Z"/><path class="cls-2" d="M138,55.3a4.08,4.08,0,0,1,1,.12,2.11,2.11,0,0,1,.79.35,1.51,1.51,0,0,1,.5.59,1.86,1.86,0,0,1,.18.84v2.33a.63.63,0,0,1-.15.44,1.31,1.31,0,0,1-.36.3,3.7,3.7,0,0,1-1.9.41,4.22,4.22,0,0,1-1-.11,2.29,2.29,0,0,1-.76-.31,1.46,1.46,0,0,1-.49-.53,1.51,1.51,0,0,1-.17-.75,1.42,1.42,0,0,1,.42-1.1,2.29,2.29,0,0,1,1.32-.48l1.36-.14v-.08a.44.44,0,0,0-.26-.43,1.89,1.89,0,0,0-.76-.13,3.25,3.25,0,0,0-.77.09,3.91,3.91,0,0,0-.68.2.74.74,0,0,1-.23-.28.93.93,0,0,1-.09-.4.63.63,0,0,1,.13-.43,1,1,0,0,1,.4-.28,3.22,3.22,0,0,1,.71-.17A7.11,7.11,0,0,1,138,55.3Zm.08,4.09a2.87,2.87,0,0,0,.39,0,.93.93,0,0,0,.32-.1v-.83l-.75.06a1.19,1.19,0,0,0-.48.13.33.33,0,0,0-.19.31.44.44,0,0,0,.16.34A.94.94,0,0,0,138.05,59.39Z"/><path class="cls-2" d="M144.39,56.69a1.39,1.39,0,0,0-.5.09,1.15,1.15,0,0,0-.68.64,1.4,1.4,0,0,0-.1.56,1.2,1.2,0,0,0,.37,1,1.32,1.32,0,0,0,.9.32,1.73,1.73,0,0,0,.54-.07,2.56,2.56,0,0,0,.4-.16,1,1,0,0,1,.31.32.76.76,0,0,1,.11.41.74.74,0,0,1-.41.66,2.2,2.2,0,0,1-1.12.23,3.36,3.36,0,0,1-1.18-.19,2.65,2.65,0,0,1-.91-.54,2.33,2.33,0,0,1-.59-.83,2.75,2.75,0,0,1-.21-1.09,3,3,0,0,1,.23-1.2,2.26,2.26,0,0,1,.6-.84,2.69,2.69,0,0,1,.89-.5,3.43,3.43,0,0,1,1.07-.17,2.06,2.06,0,0,1,1.15.27.78.78,0,0,1,.31,1.07,1.06,1.06,0,0,1-.22.29,3.76,3.76,0,0,0-.42-.16A1.91,1.91,0,0,0,144.39,56.69Z"/><path class="cls-2" d="M146.58,54.06a.9.9,0,0,1,.27-.67.93.93,0,0,1,.7-.27.91.91,0,0,1,1,.94.93.93,0,0,1-.26.66.94.94,0,0,1-.7.27.93.93,0,0,1-.7-.27A.9.9,0,0,1,146.58,54.06Zm1.85,6.44-.34.06-.45,0a2.54,2.54,0,0,1-.41,0,.77.77,0,0,1-.31-.12.73.73,0,0,1-.19-.26,1.22,1.22,0,0,1-.07-.42V55.53l.34-.06.45,0a2.46,2.46,0,0,1,.41,0,.72.72,0,0,1,.31.12.63.63,0,0,1,.19.26,1,1,0,0,1,.07.42Z"/><path class="cls-2" d="M154.78,58a3.15,3.15,0,0,1-.2,1.15,2.25,2.25,0,0,1-1.41,1.37,3.23,3.23,0,0,1-1.11.18,3.33,3.33,0,0,1-1.12-.19,2.42,2.42,0,0,1-.85-.54,2.34,2.34,0,0,1-.56-.84,3.11,3.11,0,0,1-.2-1.13,3,3,0,0,1,.2-1.11,2.47,2.47,0,0,1,.56-.85,2.4,2.4,0,0,1,.85-.53,3.1,3.1,0,0,1,1.12-.19,3.23,3.23,0,0,1,1.11.19,2.35,2.35,0,0,1,1.41,1.39A3,3,0,0,1,154.78,58Zm-2.4-5.2a1.17,1.17,0,0,1,.78.21.6.6,0,0,1,.25.49.73.73,0,0,1-.15.46,1.38,1.38,0,0,1-.48.35l-1.34.71a.85.85,0,0,1-.53-.25.66.66,0,0,1-.21-.47.61.61,0,0,1,.06-.25.62.62,0,0,1,.21-.22ZM151.14,58a1.61,1.61,0,0,0,.25,1,.8.8,0,0,0,.68.33.76.76,0,0,0,.67-.34,1.76,1.76,0,0,0,.23-1,1.66,1.66,0,0,0-.24-1,.79.79,0,0,0-.67-.34.8.8,0,0,0-.68.34A1.66,1.66,0,0,0,151.14,58Z"/><path class="cls-2" d="M158.84,57.31a.57.57,0,0,0-.18-.47.71.71,0,0,0-.49-.16,1.4,1.4,0,0,0-.41.06.93.93,0,0,0-.35.15V60.5l-.33.06a3.44,3.44,0,0,1-.46,0,2.54,2.54,0,0,1-.41,0,.72.72,0,0,1-.31-.12.63.63,0,0,1-.19-.26,1,1,0,0,1-.07-.42V56.64a.77.77,0,0,1,.12-.45,1.29,1.29,0,0,1,.33-.33,2.94,2.94,0,0,1,.89-.4,4,4,0,0,1,1.19-.16,2.74,2.74,0,0,1,1.8.52,1.72,1.72,0,0,1,.64,1.43V60.5l-.33.06a3.44,3.44,0,0,1-.46,0,2.54,2.54,0,0,1-.41,0,.77.77,0,0,1-.31-.12.73.73,0,0,1-.19-.26,1,1,0,0,1-.07-.42Z"/><path class="cls-2" d="M166.36,60.68l-.42,0a4.22,4.22,0,0,1-.49,0l-.51-.07a4.07,4.07,0,0,1-.45-.13.78.78,0,0,1-.58-.76V54.8a.45.45,0,0,1,.12-.33.88.88,0,0,1,.33-.2,4.37,4.37,0,0,1,.88-.18,9.87,9.87,0,0,1,1.1-.06,3.86,3.86,0,0,1,2,.45,1.51,1.51,0,0,1,.72,1.38,1.26,1.26,0,0,1-.27.81,1.53,1.53,0,0,1-.73.49,1.85,1.85,0,0,1,.87.53,1.41,1.41,0,0,1,.35,1,1.69,1.69,0,0,1-.77,1.52A4,4,0,0,1,166.36,60.68Zm-.68-4h.76a1,1,0,0,0,.65-.16.62.62,0,0,0,.2-.49.53.53,0,0,0-.23-.45,1.23,1.23,0,0,0-.7-.16H166a1.33,1.33,0,0,0-.32,0Zm0,2.54a1.68,1.68,0,0,0,.37.06h.44a1.22,1.22,0,0,0,.69-.17.57.57,0,0,0,.28-.53.53.53,0,0,0-.23-.49,1.3,1.3,0,0,0-.7-.15h-.85Z"/><path class="cls-2" d="M172.29,55.3a4.08,4.08,0,0,1,1,.12,2.11,2.11,0,0,1,.79.35,1.53,1.53,0,0,1,.51.59,2,2,0,0,1,.17.84v2.33a.63.63,0,0,1-.15.44,1.31,1.31,0,0,1-.36.3,3.7,3.7,0,0,1-1.9.41,4.28,4.28,0,0,1-1-.11,2.38,2.38,0,0,1-.76-.31,1.55,1.55,0,0,1-.49-.53A1.63,1.63,0,0,1,170,59a1.39,1.39,0,0,1,.43-1.1,2.24,2.24,0,0,1,1.32-.48l1.36-.14v-.08a.45.45,0,0,0-.27-.43,1.86,1.86,0,0,0-.76-.13,3.31,3.31,0,0,0-.77.09,3.79,3.79,0,0,0-.67.2.66.66,0,0,1-.23-.28.82.82,0,0,1-.1-.4.69.69,0,0,1,.13-.43,1,1,0,0,1,.4-.28,3.18,3.18,0,0,1,.72-.17A7.09,7.09,0,0,1,172.29,55.3Zm.37-2.52a1.2,1.2,0,0,1,.79.21.62.62,0,0,1,.24.49.78.78,0,0,1-.14.46,1.49,1.49,0,0,1-.48.35l-1.34.71a.8.8,0,0,1-.53-.25.63.63,0,0,1-.22-.47A.61.61,0,0,1,171,54a.62.62,0,0,1,.21-.22Zm-.29,6.61a2.87,2.87,0,0,0,.39,0,.93.93,0,0,0,.32-.1v-.83l-.75.06a1.3,1.3,0,0,0-.48.13.33.33,0,0,0-.18.31.41.41,0,0,0,.16.34A.91.91,0,0,0,172.37,59.39Z"/><path class="cls-2" d="M180.12,59a1.45,1.45,0,0,1-.59,1.24,2.83,2.83,0,0,1-1.74.45,5.09,5.09,0,0,1-.81-.07,2.1,2.1,0,0,1-.64-.19,1.09,1.09,0,0,1-.42-.33.73.73,0,0,1-.15-.46.77.77,0,0,1,.1-.42,1.19,1.19,0,0,1,.25-.29,4.46,4.46,0,0,0,.69.3,3,3,0,0,0,.9.13,1.1,1.1,0,0,0,.5-.1.28.28,0,0,0,.17-.25.27.27,0,0,0-.13-.23,1.15,1.15,0,0,0-.41-.13l-.31-.06a3,3,0,0,1-1.35-.56,1.54,1.54,0,0,1-.27-1.78,1.43,1.43,0,0,1,.46-.52,2.13,2.13,0,0,1,.73-.32,3.38,3.38,0,0,1,.93-.12,4.2,4.2,0,0,1,.72.06,2.21,2.21,0,0,1,.58.17,1.14,1.14,0,0,1,.4.3.64.64,0,0,1,.14.43.88.88,0,0,1-.08.41.91.91,0,0,1-.23.28,1.06,1.06,0,0,0-.25-.1l-.36-.11-.4-.08-.37,0a1.48,1.48,0,0,0-.53.08.26.26,0,0,0-.19.24.23.23,0,0,0,.11.19,1.11,1.11,0,0,0,.39.14l.32.07a3,3,0,0,1,1.42.63A1.35,1.35,0,0,1,180.12,59Z"/><path class="cls-2" d="M180.93,54.06a.9.9,0,0,1,.27-.67.94.94,0,0,1,.7-.27.93.93,0,0,1,.7.27,1,1,0,0,1,0,1.33.93.93,0,0,1-.7.27.94.94,0,0,1-.7-.27A.9.9,0,0,1,180.93,54.06Zm1.85,6.44-.33.06a3.44,3.44,0,0,1-.46,0,2.63,2.63,0,0,1-.41,0,.68.68,0,0,1-.3-.12.55.55,0,0,1-.19-.26,1,1,0,0,1-.07-.42V55.53l.34-.06a3.29,3.29,0,0,1,.45,0,2.54,2.54,0,0,1,.41,0,.68.68,0,0,1,.3.12.65.65,0,0,1,.2.26,1.25,1.25,0,0,1,.06.42Z"/><path class="cls-2" d="M186.75,56.69a1.37,1.37,0,0,0-.49.09,1.07,1.07,0,0,0-.4.24,1.15,1.15,0,0,0-.28.4,1.4,1.4,0,0,0-.1.56,1.23,1.23,0,0,0,.36,1,1.36,1.36,0,0,0,.9.32,1.73,1.73,0,0,0,.54-.07,2.7,2.7,0,0,0,.41-.16,1.16,1.16,0,0,1,.31.32.76.76,0,0,1,.11.41.74.74,0,0,1-.41.66,2.2,2.2,0,0,1-1.12.23,3.46,3.46,0,0,1-1.19-.19,2.85,2.85,0,0,1-.91-.54,2.31,2.31,0,0,1-.58-.83,2.75,2.75,0,0,1-.21-1.09,3,3,0,0,1,.22-1.2,2.28,2.28,0,0,1,.61-.84,2.6,2.6,0,0,1,.89-.5,3.36,3.36,0,0,1,1.06-.17,2.09,2.09,0,0,1,1.16.27.81.81,0,0,1,.31,1.07,1.3,1.3,0,0,1-.22.29,4,4,0,0,0-.43-.16A1.8,1.8,0,0,0,186.75,56.69Z"/><path class="cls-2" d="M191.07,55.3a4.08,4.08,0,0,1,1,.12,2.11,2.11,0,0,1,.79.35,1.43,1.43,0,0,1,.5.59,1.86,1.86,0,0,1,.18.84v2.33a.63.63,0,0,1-.15.44,1.31,1.31,0,0,1-.36.3,3.7,3.7,0,0,1-1.9.41,4.22,4.22,0,0,1-1-.11,2.29,2.29,0,0,1-.76-.31,1.46,1.46,0,0,1-.49-.53,1.63,1.63,0,0,1-.17-.75,1.42,1.42,0,0,1,.42-1.1,2.29,2.29,0,0,1,1.32-.48l1.37-.14v-.08a.45.45,0,0,0-.27-.43,1.89,1.89,0,0,0-.76-.13,3.25,3.25,0,0,0-.77.09,3.91,3.91,0,0,0-.68.2.74.74,0,0,1-.23-.28.93.93,0,0,1-.09-.4.63.63,0,0,1,.13-.43,1,1,0,0,1,.4-.28,3.22,3.22,0,0,1,.71-.17A7.27,7.27,0,0,1,191.07,55.3Zm.08,4.09a2.87,2.87,0,0,0,.39,0,.93.93,0,0,0,.32-.1v-.83l-.75.06a1.19,1.19,0,0,0-.48.13.34.34,0,0,0-.19.31.44.44,0,0,0,.16.34A.94.94,0,0,0,191.15,59.39Z"/><path class="cls-2" d="M115.29,66a3.92,3.92,0,0,1,1.16.17,2.4,2.4,0,0,1,.92.49,2.15,2.15,0,0,1,.6.84,2.89,2.89,0,0,1,.22,1.2,3.17,3.17,0,0,1-.19,1.16,2.27,2.27,0,0,1-.53.84,2.13,2.13,0,0,1-.82.5,3.31,3.31,0,0,1-1.08.17,2.49,2.49,0,0,1-.83-.14v1.73l-.33.06a2.42,2.42,0,0,1-.47,0,2.54,2.54,0,0,1-.41,0,.66.66,0,0,1-.31-.13.52.52,0,0,1-.18-.25,1,1,0,0,1-.07-.42v-5a.81.81,0,0,1,.12-.46,1.44,1.44,0,0,1,.33-.32,2.68,2.68,0,0,1,.8-.33A4.42,4.42,0,0,1,115.29,66Zm0,4c.72,0,1.07-.42,1.07-1.27a1.56,1.56,0,0,0-.26-1,.92.92,0,0,0-.77-.32,1.25,1.25,0,0,0-.35,0,1.69,1.69,0,0,0-.27.11v2.29a1.69,1.69,0,0,0,.27.1A1.06,1.06,0,0,0,115.31,69.92Z"/><path class="cls-2" d="M121.13,66a4,4,0,0,1,1,.12,2,2,0,0,1,.79.35,1.53,1.53,0,0,1,.51.59,1.87,1.87,0,0,1,.18.85v2.32a.64.64,0,0,1-.16.45,1.64,1.64,0,0,1-.35.29,3.74,3.74,0,0,1-1.91.41,4.35,4.35,0,0,1-1-.11,2.38,2.38,0,0,1-.76-.31,1.47,1.47,0,0,1-.49-.53,1.6,1.6,0,0,1-.17-.75,1.44,1.44,0,0,1,.43-1.1,2.38,2.38,0,0,1,1.32-.48l1.36-.14v-.07a.46.46,0,0,0-.26-.44,1.94,1.94,0,0,0-.77-.13,3.31,3.31,0,0,0-.77.09,3.1,3.1,0,0,0-.67.21.76.76,0,0,1-.23-.29.93.93,0,0,1-.09-.4.65.65,0,0,1,.13-.43,1,1,0,0,1,.4-.28,3.11,3.11,0,0,1,.71-.16A5.3,5.3,0,0,1,121.13,66Zm.08,4.09a1.84,1.84,0,0,0,.39,0,.86.86,0,0,0,.32-.1v-.83l-.75.06a1.19,1.19,0,0,0-.47.13.33.33,0,0,0-.19.31.41.41,0,0,0,.16.34A.93.93,0,0,0,121.21,70Z"/><path class="cls-2" d="M126.47,71.15l-.32.06a3.59,3.59,0,0,1-.47,0,2.54,2.54,0,0,1-.41,0,.68.68,0,0,1-.3-.12.59.59,0,0,1-.2-.26,1.17,1.17,0,0,1-.06-.42V67.29a1.07,1.07,0,0,1,.08-.41,1,1,0,0,1,.26-.3,2.22,2.22,0,0,1,.41-.25c.16-.07.34-.13.52-.19a5.61,5.61,0,0,1,.59-.13,4,4,0,0,1,.6-.05,1.42,1.42,0,0,1,.79.2.7.7,0,0,1,.29.63.9.9,0,0,1,0,.28,1.19,1.19,0,0,1-.11.26,3.31,3.31,0,0,0-.44,0,3.25,3.25,0,0,0-.45.06l-.41.09a1.82,1.82,0,0,0-.33.11Z"/><path class="cls-2" d="M131.06,66a4.08,4.08,0,0,1,1,.12,2.11,2.11,0,0,1,.79.35,1.51,1.51,0,0,1,.5.59,1.87,1.87,0,0,1,.18.85v2.32a.68.68,0,0,1-.15.45,1.48,1.48,0,0,1-.36.29,3.7,3.7,0,0,1-1.9.41,4.22,4.22,0,0,1-1-.11,2.29,2.29,0,0,1-.76-.31,1.38,1.38,0,0,1-.49-.53,1.49,1.49,0,0,1-.17-.75,1.43,1.43,0,0,1,.42-1.1,2.44,2.44,0,0,1,1.32-.48l1.36-.14v-.07a.44.44,0,0,0-.26-.44,1.89,1.89,0,0,0-.76-.13,3.25,3.25,0,0,0-.77.09,3.19,3.19,0,0,0-.68.21.87.87,0,0,1-.23-.29.93.93,0,0,1-.09-.4.65.65,0,0,1,.13-.43,1,1,0,0,1,.4-.28,3.24,3.24,0,0,1,.71-.16A5.32,5.32,0,0,1,131.06,66Zm.08,4.09a1.84,1.84,0,0,0,.39,0,.8.8,0,0,0,.31-.1v-.83l-.74.06a1.19,1.19,0,0,0-.48.13.33.33,0,0,0-.19.31.44.44,0,0,0,.16.34A.94.94,0,0,0,131.14,70Z"/><path class="cls-2" d="M138.18,65.05a2.6,2.6,0,0,1,.54-.2,3,3,0,0,1,.72-.09,2.61,2.61,0,0,1,.92.15.82.82,0,0,1,.52.47c.12.36.26.78.4,1.26s.29,1,.44,1.48l.42,1.51.37,1.31a.89.89,0,0,1-.38.24,1.72,1.72,0,0,1-.59.08,1.66,1.66,0,0,1-.42,0,.72.72,0,0,1-.28-.12.79.79,0,0,1-.18-.22c0-.09-.08-.19-.12-.31l-.18-.72h-1.88c-.06.21-.12.42-.17.65s-.11.43-.17.64l-.3.09a2.21,2.21,0,0,1-.39,0,1.38,1.38,0,0,1-.79-.18.58.58,0,0,1-.25-.5.92.92,0,0,1,0-.29c0-.1.06-.21.09-.35l.2-.69.29-.9c.1-.32.22-.65.33-1s.23-.66.34-1,.19-.57.28-.81S138.14,65.17,138.18,65.05Zm1.25,1.34-.33,1c-.12.36-.23.72-.32,1.09h1.28c-.09-.38-.19-.74-.29-1.1s-.19-.68-.28-1Z"/><path class="cls-2" d="M143,68.64a3.06,3.06,0,0,1,.2-1.19,2.22,2.22,0,0,1,.58-.84,2.3,2.3,0,0,1,.86-.49,3.38,3.38,0,0,1,1.07-.17,2.58,2.58,0,0,1,.4,0,1.31,1.31,0,0,1,.33.09V64.4a1.29,1.29,0,0,1,.33-.07,2.42,2.42,0,0,1,.47,0,2.63,2.63,0,0,1,.41,0,.69.69,0,0,1,.3.13.48.48,0,0,1,.19.25,1.25,1.25,0,0,1,.06.42v4.93a.89.89,0,0,1-.46.78,3.18,3.18,0,0,1-.78.35,3.61,3.61,0,0,1-1.1.15,3.79,3.79,0,0,1-1.21-.19,2.46,2.46,0,0,1-.9-.54,2.33,2.33,0,0,1-.56-.85A3,3,0,0,1,143,68.64Zm3-1.3a1.13,1.13,0,0,0-.87.32,1.39,1.39,0,0,0-.3,1,1.5,1.5,0,0,0,.28,1,1,1,0,0,0,.81.32.9.9,0,0,0,.34-.05.89.89,0,0,0,.24-.13V67.46A1,1,0,0,0,146,67.34Z"/><path class="cls-2" d="M149.31,66.18l.33-.06a3.44,3.44,0,0,1,.46,0,2.46,2.46,0,0,1,.41,0,.59.59,0,0,1,.31.13.54.54,0,0,1,.19.25,1,1,0,0,1,.07.42v2.24a.75.75,0,0,0,.21.6.9.9,0,0,0,.6.18,1.41,1.41,0,0,0,.39,0,.76.76,0,0,0,.23-.08V66.18l.33-.06a3.44,3.44,0,0,1,.46,0,2.46,2.46,0,0,1,.41,0,.59.59,0,0,1,.31.13.54.54,0,0,1,.19.25,1,1,0,0,1,.07.42v3.16a.83.83,0,0,1-.44.78,2.92,2.92,0,0,1-.86.35,4.82,4.82,0,0,1-1.1.12,3.72,3.72,0,0,1-1-.13,2.3,2.3,0,0,1-.82-.38,1.84,1.84,0,0,1-.53-.67,2.5,2.5,0,0,1-.19-1Z"/><path class="cls-2" d="M157.16,71.15l-.34.06a3.4,3.4,0,0,1-.45,0,2.54,2.54,0,0,1-.41,0,.77.77,0,0,1-.31-.12.57.57,0,0,1-.19-.26,1,1,0,0,1-.07-.42v-6l.34-.06a2.28,2.28,0,0,1,.45,0,2.54,2.54,0,0,1,.41,0,.73.73,0,0,1,.31.13.54.54,0,0,1,.19.25,1,1,0,0,1,.07.42Z"/><path class="cls-2" d="M160,69.42a.42.42,0,0,0,.17.39.81.81,0,0,0,.48.11,1.72,1.72,0,0,0,.32,0l.3-.07a2.13,2.13,0,0,1,.16.25.9.9,0,0,1,.06.34.8.8,0,0,1-.29.65,1.72,1.72,0,0,1-1.05.25,2.07,2.07,0,0,1-1.4-.42,1.68,1.68,0,0,1-.5-1.35V65.1l.33-.07a3.19,3.19,0,0,1,.45,0,1.29,1.29,0,0,1,.71.16.75.75,0,0,1,.26.68v.67h1.36a2,2,0,0,1,.12.28,1.16,1.16,0,0,1,.06.38.73.73,0,0,1-.17.53.6.6,0,0,1-.43.16H160Z"/><path class="cls-2" d="M167.65,68.64a3.1,3.1,0,0,1-.19,1.14,2.29,2.29,0,0,1-.56.85,2.33,2.33,0,0,1-.86.52,3.42,3.42,0,0,1-2.22,0,2.36,2.36,0,0,1-1.41-1.38,3.24,3.24,0,0,1,0-2.24,2.32,2.32,0,0,1,.55-.84,2.46,2.46,0,0,1,.86-.54,3.23,3.23,0,0,1,1.11-.19,3,3,0,0,1,1.11.2,2.38,2.38,0,0,1,.86.54,2.34,2.34,0,0,1,.56.84A3,3,0,0,1,167.65,68.64Zm-3.63,0a1.67,1.67,0,0,0,.24,1,.8.8,0,0,0,.68.33.75.75,0,0,0,.67-.34,2.06,2.06,0,0,0,0-1.93.8.8,0,0,0-.68-.33.78.78,0,0,0-.67.33A1.67,1.67,0,0,0,164,68.64Z"/><path class="cls-2" d="M172.78,69.65a1.48,1.48,0,0,1-.59,1.24,2.88,2.88,0,0,1-1.75.45,4.14,4.14,0,0,1-.81-.07,2.19,2.19,0,0,1-.64-.19,1.07,1.07,0,0,1-.42-.32.83.83,0,0,1,0-.89,1,1,0,0,1,.25-.29,4.46,4.46,0,0,0,.69.3,3,3,0,0,0,.9.13.94.94,0,0,0,.49-.1.28.28,0,0,0,.17-.25.25.25,0,0,0-.12-.22,1.19,1.19,0,0,0-.42-.14l-.31-.06a2.92,2.92,0,0,1-1.35-.56,1.35,1.35,0,0,1-.44-1.08,1.48,1.48,0,0,1,.17-.7,1.46,1.46,0,0,1,.47-.52,2.16,2.16,0,0,1,.72-.32,3.38,3.38,0,0,1,.93-.12,4.11,4.11,0,0,1,.72.06,2.76,2.76,0,0,1,.59.17,1.1,1.1,0,0,1,.39.3.64.64,0,0,1,.15.43.86.86,0,0,1-.09.41,1.06,1.06,0,0,1-.22.29,1.22,1.22,0,0,0-.25-.11,2.74,2.74,0,0,0-.37-.11l-.4-.07a1.61,1.61,0,0,0-.37,0,1.52,1.52,0,0,0-.53.08.26.26,0,0,0-.18.25.21.21,0,0,0,.1.18,1.1,1.1,0,0,0,.4.14l.32.07a3,3,0,0,1,1.42.63A1.36,1.36,0,0,1,172.78,69.65Z"/><circle class="cls-3" cx="52.48" cy="52.58" r="52.43"/><path class="cls-4" d="M35.31,69.88a2.64,2.64,0,0,0-.81.13,1.6,1.6,0,0,0-.65.39,1.67,1.67,0,0,0-.44.65,2.74,2.74,0,0,0-.16,1,2.48,2.48,0,0,0,.15.89,2,2,0,0,0,.42.66,1.86,1.86,0,0,0,.69.42,3,3,0,0,0,1.77,0,2.42,2.42,0,0,0,.6-.27.64.64,0,0,0,.32-.57V69.1a.9.9,0,0,0,0-.31.43.43,0,0,0-.12-.17.4.4,0,0,0-.2-.08,1.88,1.88,0,0,0-.67,0l-.18,0V70l-.14,0a.79.79,0,0,0-.23-.07A1.55,1.55,0,0,0,35.31,69.88Zm.14,3.28a.89.89,0,0,1-.72-.3,1.35,1.35,0,0,1-.25-.86,1.24,1.24,0,0,1,.27-.87,1,1,0,0,1,.75-.3A.84.84,0,0,1,36,71l0,0v2l0,0a.69.69,0,0,1-.21.13A.94.94,0,0,1,35.45,73.16Z"/><path class="cls-4" d="M30.69,70.83a.64.64,0,0,1,.45.15.57.57,0,0,1,.18.46v2a.74.74,0,0,0,.05.32.52.52,0,0,0,.12.17.4.4,0,0,0,.2.08,2.5,2.5,0,0,0,.67,0l.18,0V71.39a1.38,1.38,0,0,0-.47-1.11,2.14,2.14,0,0,0-1.38-.4,2.92,2.92,0,0,0-.92.13,2.26,2.26,0,0,0-.68.32.75.75,0,0,0-.23.24.53.53,0,0,0-.08.32v2.57a1,1,0,0,0,0,.32A.43.43,0,0,0,29,74a.4.4,0,0,0,.2.08,2.43,2.43,0,0,0,.66,0L30,74v-3l0,0a1,1,0,0,1,.31-.14A1.34,1.34,0,0,1,30.69,70.83Z"/><path class="cls-4" d="M25.81,70.78a1.45,1.45,0,0,1,.65.12.47.47,0,0,1,.26.44v.14l-1.17.13a1.75,1.75,0,0,0-1,.37,1.09,1.09,0,0,0-.31.84,1.14,1.14,0,0,0,.13.57,1.07,1.07,0,0,0,.35.41,1.81,1.81,0,0,0,.58.24,3,3,0,0,0,.76.08,2.7,2.7,0,0,0,1.46-.32,1.18,1.18,0,0,0,.27-.22.5.5,0,0,0,.09-.31V71.36a1.47,1.47,0,0,0-.13-.66,1.08,1.08,0,0,0-.37-.45A1.7,1.7,0,0,0,26.8,70a3.75,3.75,0,0,0-1.4,0,2.35,2.35,0,0,0-.54.14.69.69,0,0,0-.28.19.51.51,0,0,0-.08.3.72.72,0,0,0,.06.29.57.57,0,0,0,.12.17,4.22,4.22,0,0,1,.5-.16A3.2,3.2,0,0,1,25.81,70.78Zm.26,2.47a.72.72,0,0,1-.49-.13.43.43,0,0,1-.16-.35.37.37,0,0,1,.19-.34,1,1,0,0,1,.42-.11l.7-.06v.84l-.05,0a.75.75,0,0,1-.28.1Z"/><path class="cls-4" d="M23.21,69.89a2.49,2.49,0,0,0-.47,0,3.63,3.63,0,0,0-.45.1,3.7,3.7,0,0,0-.4.16,1.49,1.49,0,0,0-.31.18.76.76,0,0,0-.18.23.65.65,0,0,0-.06.29v2.57a.93.93,0,0,0,.05.32.52.52,0,0,0,.12.17.44.44,0,0,0,.21.08,2.43,2.43,0,0,0,.66,0l.18,0V71.09l.05,0a1.51,1.51,0,0,1,.28-.1l.33-.07a2.2,2.2,0,0,1,.37-.06h.3a.88.88,0,0,0,.05-.15.66.66,0,0,0,0-.21.5.5,0,0,0-.19-.44A1,1,0,0,0,23.21,69.89Z"/><path class="cls-4" d="M18.66,68.84a3.32,3.32,0,0,0-1,.16,2.55,2.55,0,0,0-.88.5,2.48,2.48,0,0,0-.62.84,2.78,2.78,0,0,0-.24,1.19,2.81,2.81,0,0,0,.22,1.13,2.21,2.21,0,0,0,.58.81,2.48,2.48,0,0,0,.87.49,3.66,3.66,0,0,0,1.53.14L19.5,74a2.74,2.74,0,0,0,.37-.11,1.13,1.13,0,0,0,.27-.13.73.73,0,0,0,.26-.22.58.58,0,0,0,.08-.34V71.48a.49.49,0,0,0-.11-.33.46.46,0,0,0-.32-.11H18.66a.36.36,0,0,0-.29.11.54.54,0,0,0-.11.38,1.54,1.54,0,0,0,0,.3,1.71,1.71,0,0,0,.07.18h.92V73l-.05,0a1,1,0,0,1-.24.08,1.22,1.22,0,0,1-.34,0,1.79,1.79,0,0,1-.57-.09,1.57,1.57,0,0,1-.47-.3,1.48,1.48,0,0,1-.32-.5,1.94,1.94,0,0,1-.12-.72,1.62,1.62,0,0,1,.44-1.2,1.58,1.58,0,0,1,1.17-.44,1.9,1.9,0,0,1,.73.13,3.59,3.59,0,0,1,.48.23,1.12,1.12,0,0,0,.17-.2.58.58,0,0,0,.09-.33.66.66,0,0,0-.41-.6A2.37,2.37,0,0,0,18.66,68.84Z"/><path class="cls-4" d="M39.9,69.88a2.24,2.24,0,0,0-.73.12,1.67,1.67,0,0,0-.63.37,1.83,1.83,0,0,0-.44.63,2.26,2.26,0,0,0-.17.94,2.44,2.44,0,0,0,.17,1,1.9,1.9,0,0,0,.46.67,2,2,0,0,0,.69.41,3.13,3.13,0,0,0,1.48.08,1.73,1.73,0,0,0,.57-.18.53.53,0,0,0,.3-.5.56.56,0,0,0-.08-.27.65.65,0,0,0-.15-.18,2,2,0,0,1-.46.19,2,2,0,0,1-1.35-.06.8.8,0,0,1-.42-.48l0-.1,2.14-.34a.64.64,0,0,0,.39-.17.49.49,0,0,0,.13-.38,1.77,1.77,0,0,0-.14-.69,1.6,1.6,0,0,0-.38-.54,1.83,1.83,0,0,0-.59-.36A2.28,2.28,0,0,0,39.9,69.88ZM39,71.72V71.6a1,1,0,0,1,.05-.3,1.07,1.07,0,0,1,.16-.27,1.06,1.06,0,0,1,.26-.2.94.94,0,0,1,.39-.07.69.69,0,0,1,.53.2.67.67,0,0,1,.2.39l0,.09Z"/><path class="cls-4" d="M42.55,74h2.7a.34.34,0,0,0,.27-.11.51.51,0,0,0,.11-.37,1.18,1.18,0,0,0,0-.28l-.07-.18H43.77l1.51-1.88a1.75,1.75,0,0,0,.18-.29.82.82,0,0,0,.07-.3.81.81,0,0,0-.07-.33.76.76,0,0,0-.17-.23H42.73a.37.37,0,0,0-.28.1.58.58,0,0,0-.1.37,1.27,1.27,0,0,0,0,.29,1.47,1.47,0,0,0,.07.17h1.66l-1.55,1.89a1.75,1.75,0,0,0-.18.29.66.66,0,0,0-.07.3.72.72,0,0,0,.07.33A1.19,1.19,0,0,0,42.55,74Z"/><path class="cls-4" d="M47.64,70.78a1.45,1.45,0,0,1,.65.12.47.47,0,0,1,.26.44v.14l-1.17.13a1.75,1.75,0,0,0-1,.37,1.09,1.09,0,0,0-.31.84,1.26,1.26,0,0,0,.12.57,1.19,1.19,0,0,0,.36.41,1.85,1.85,0,0,0,.57.24,3.09,3.09,0,0,0,.77.08,2.7,2.7,0,0,0,1.46-.32,1.44,1.44,0,0,0,.27-.22.5.5,0,0,0,.09-.31V71.36a1.47,1.47,0,0,0-.13-.66,1.08,1.08,0,0,0-.37-.45,1.67,1.67,0,0,0-.6-.28,3.69,3.69,0,0,0-1.39,0,2.35,2.35,0,0,0-.54.14.69.69,0,0,0-.28.19.45.45,0,0,0-.08.3.72.72,0,0,0,.06.29.56.56,0,0,0,.11.17,4.92,4.92,0,0,1,.5-.16A3.39,3.39,0,0,1,47.64,70.78Zm.26,2.47a.72.72,0,0,1-.49-.13.44.44,0,0,1-.17-.35.38.38,0,0,1,.2-.34,1,1,0,0,1,.42-.11l.7-.06v.84l-.05,0a.75.75,0,0,1-.28.1Z"/><path class="cls-4" d="M54,69.88a2.71,2.71,0,0,0-.82.13,1.74,1.74,0,0,0-.65.39,1.76,1.76,0,0,0-.43.65,2.52,2.52,0,0,0-.16,1,2.72,2.72,0,0,0,.14.89,1.84,1.84,0,0,0,.43.66,1.74,1.74,0,0,0,.68.42A3,3,0,0,0,55,74a2.82,2.82,0,0,0,.6-.27.66.66,0,0,0,.32-.57V69.1a.87.87,0,0,0,0-.31.34.34,0,0,0-.11-.17.49.49,0,0,0-.21-.08,1.83,1.83,0,0,0-.66,0l-.19,0V70l-.13,0a1,1,0,0,0-.24-.07A1.53,1.53,0,0,0,54,69.88Zm.13,3.28a.89.89,0,0,1-.72-.3,1.35,1.35,0,0,1-.24-.86,1.29,1.29,0,0,1,.26-.87,1,1,0,0,1,.76-.3.78.78,0,0,1,.44.12l0,0v2l0,0a.75.75,0,0,1-.22.13A.94.94,0,0,1,54.11,73.16Z"/><path class="cls-4" d="M58.56,69.88a2.33,2.33,0,0,0-.73.12,1.83,1.83,0,0,0-1.07,1,2.43,2.43,0,0,0-.17.94,2.63,2.63,0,0,0,.17,1A1.93,1.93,0,0,0,57.92,74a3.12,3.12,0,0,0,1.48.08,1.6,1.6,0,0,0,.56-.18.53.53,0,0,0,.3-.5.47.47,0,0,0-.08-.27.86.86,0,0,0-.14-.18,2.91,2.91,0,0,1-.46.19,2,2,0,0,1-1.36-.06.8.8,0,0,1-.42-.48l0-.1,2.15-.34a.64.64,0,0,0,.39-.17.53.53,0,0,0,.13-.38,1.77,1.77,0,0,0-.14-.69,1.6,1.6,0,0,0-.38-.54,2.08,2.08,0,0,0-.59-.36A2.34,2.34,0,0,0,58.56,69.88Zm-.87,1.84V71.6a1.59,1.59,0,0,1,.06-.3,1,1,0,0,1,.15-.27,1,1,0,0,1,.27-.2.92.92,0,0,1,.38-.07.69.69,0,0,1,.53.2.75.75,0,0,1,.21.39v.09Z"/><path class="cls-4" d="M66.64,70.58h.2v.09c0,.33,0,.75,0,1.25s0,1.06.06,1.68a.37.37,0,0,0,.18.35,1,1,0,0,0,.48.11A1.66,1.66,0,0,0,68,74a.85.85,0,0,0,.22-.09c0-.13,0-.3,0-.53s0-.53-.06-.83l-.08-1c0-.33,0-.64-.08-.94s0-.56-.08-.8a3.45,3.45,0,0,0-.07-.52.4.4,0,0,0-.24-.29,1.56,1.56,0,0,0-.62-.11,1.73,1.73,0,0,0-.41,0l-.27.09c-.11.3-.22.67-.35,1.09s-.26.91-.39,1.39l0,.07h-.19l-.16-.57c-.06-.18-.11-.37-.17-.56L64.8,70c0-.17-.11-.33-.16-.46a.71.71,0,0,0-.32-.41,1.25,1.25,0,0,0-.64-.13,1.17,1.17,0,0,0-.58.12.82.82,0,0,0-.24.18l-.24,4.35a.36.36,0,0,0,.16.35,1,1,0,0,0,.52.11l.33,0,.2,0c0-.3,0-.58,0-.83s0-.53,0-.79,0-.54,0-.81,0-.59,0-.93v-.09h.21v.08c.06.23.13.5.23.81s.23.72.38,1.22a.34.34,0,0,0,.2.21,1.44,1.44,0,0,0,.46.07,1,1,0,0,0,.36-.06.51.51,0,0,0,.22-.11c.15-.5.27-.93.38-1.27s.18-.61.23-.83Z"/><path class="cls-4" d="M70.8,69.88a2.33,2.33,0,0,0-.73.12A1.83,1.83,0,0,0,69,71a2.43,2.43,0,0,0-.17.94,2.63,2.63,0,0,0,.17,1,1.8,1.8,0,0,0,.47.67,1.92,1.92,0,0,0,.69.41,3.12,3.12,0,0,0,1.48.08,1.6,1.6,0,0,0,.56-.18.53.53,0,0,0,.3-.5.47.47,0,0,0-.08-.27.86.86,0,0,0-.14-.18,2.91,2.91,0,0,1-.46.19,2,2,0,0,1-1.36-.06.8.8,0,0,1-.42-.48l0-.1,2.15-.34a.64.64,0,0,0,.39-.17.52.52,0,0,0,.12-.38,1.77,1.77,0,0,0-.13-.69,1.6,1.6,0,0,0-.38-.54,2.08,2.08,0,0,0-.59-.36A2.34,2.34,0,0,0,70.8,69.88Zm-.87,1.84V71.6a1.59,1.59,0,0,1,.06-.3,1,1,0,0,1,.15-.27,1,1,0,0,1,.27-.2.92.92,0,0,1,.38-.07.69.69,0,0,1,.53.2.75.75,0,0,1,.21.39v.09Zm1-3.92-1.1.83a.44.44,0,0,0-.13.15.35.35,0,0,0,0,.17.49.49,0,0,0,.14.32.58.58,0,0,0,.34.17l1-.56a1.37,1.37,0,0,0,.35-.27.55.55,0,0,0,.1-.32.45.45,0,0,0-.17-.34A.8.8,0,0,0,71,67.8Z"/><path class="cls-4" d="M74.92,72.72l.53.78a3.86,3.86,0,0,0,.34.42.62.62,0,0,0,.44.16.6.6,0,0,0,.43-.16.7.7,0,0,0,.21-.42L75.77,72l.59-.69.22-.28.14-.21a1.19,1.19,0,0,0,.08-.16.9.9,0,0,0,0-.18.43.43,0,0,0-.22-.37A1.31,1.31,0,0,0,76,70l-.93,1.31-.61-.82a2.76,2.76,0,0,0-.31-.38.57.57,0,0,0-.36-.11.54.54,0,0,0-.42.18.87.87,0,0,0-.22.44l1.12,1.37-.71.86a3.91,3.91,0,0,0-.32.42.62.62,0,0,0-.08.31.44.44,0,0,0,.19.37.87.87,0,0,0,.58.16H74Z"/><path class="cls-4" d="M77.53,70.06v3.4a.74.74,0,0,0,0,.32.41.41,0,0,0,.12.17.4.4,0,0,0,.2.08,2.35,2.35,0,0,0,.65,0l.2,0v-3.4a.93.93,0,0,0,0-.32.37.37,0,0,0-.13-.17.4.4,0,0,0-.2-.08,2,2,0,0,0-.65,0Z"/><path class="cls-4" d="M78.14,68.08a.63.63,0,0,0-.49.2.65.65,0,0,0-.19.48.63.63,0,0,0,.19.48.6.6,0,0,0,.49.2.63.63,0,0,0,.49-.2.66.66,0,0,0,.18-.48.68.68,0,0,0-.18-.48A.66.66,0,0,0,78.14,68.08Z"/><path class="cls-4" d="M81.61,69.88a2.71,2.71,0,0,0-.82.13,1.9,1.9,0,0,0-.67.4,1.67,1.67,0,0,0-.46.66,2.64,2.64,0,0,0,0,1.81,2,2,0,0,0,.45.66,2,2,0,0,0,.69.42,2.59,2.59,0,0,0,.91.15,1.76,1.76,0,0,0,.84-.17.53.53,0,0,0,.28-.47.54.54,0,0,0-.07-.29.67.67,0,0,0-.18-.2l-.28.11a1.56,1.56,0,0,1-.46.06,1.1,1.1,0,0,1-.78-.29,1.11,1.11,0,0,1-.32-.86,1.28,1.28,0,0,1,.09-.5,1.13,1.13,0,0,1,.24-.36,1,1,0,0,1,.35-.22,1.43,1.43,0,0,1,.89,0l.28.11a1,1,0,0,0,.12-.17.58.58,0,0,0,.06-.26.57.57,0,0,0-.28-.5A1.5,1.5,0,0,0,81.61,69.88Z"/><path class="cls-4" d="M85.31,69.88a2.26,2.26,0,0,0-.85.15,1.8,1.8,0,0,0-1.07,1.09,2.69,2.69,0,0,0,0,1.77,2,2,0,0,0,.42.67,1.82,1.82,0,0,0,.65.42,2.48,2.48,0,0,0,.85.14,2.33,2.33,0,0,0,.85-.14,1.87,1.87,0,0,0,.65-.4,2.06,2.06,0,0,0,.42-.67,2.55,2.55,0,0,0,.15-.91,2.5,2.5,0,0,0-.15-.88A2,2,0,0,0,86.16,70,2.34,2.34,0,0,0,85.31,69.88Zm0,3.29a.7.7,0,0,1-.61-.32,1.46,1.46,0,0,1-.21-.85,1.49,1.49,0,0,1,.2-.85.72.72,0,0,1,.62-.32.7.7,0,0,1,.61.32,1.48,1.48,0,0,1,.21.85,1.59,1.59,0,0,1-.2.85A.72.72,0,0,1,85.31,73.17Z"/><path class="cls-4" d="M38.88,58.58a3.56,3.56,0,0,1-2.18,3.54A19.72,19.72,0,0,1,27.81,64C16.58,64,11.5,57.14,11.5,49.17c0-9.06,6.64-15.36,16.41-15.36,3.93,0,7.43.87,9.11,3.15a4,4,0,0,1-1.41,5.59,14.11,14.11,0,0,0-6.95-2.08C21.22,40.47,20,46.22,20,49c0,4.63,2.29,7,4.87,7.87a8.14,8.14,0,0,0,6.1-.12V52.34H25.92a7.11,7.11,0,0,1-.74-4.05A2.53,2.53,0,0,1,27.91,46h8a2.74,2.74,0,0,1,3,3Z"/><path class="cls-4" d="M93.13,49A15.27,15.27,0,1,1,77.86,33.75,15.25,15.25,0,0,1,93.13,49ZM77.86,42.25A6.78,6.78,0,1,0,84.74,49,6.84,6.84,0,0,0,77.86,42.25Z"/><path class="cls-4" d="M47.32,63.53c1.94.42,4.87.74,6.63,0C55,63,55.62,62,55.62,60.23v-19h5.75c3.28,0,3.32-3.82,3.07-6.75H42.75c-3.45,0-3.92,3.28-3.47,6.75h8Z"/><path class="cls-5" d="M47.32,63.53c1.94.42,4.87.74,6.63,0C55,63,55.62,62,55.62,60.23V59c-2.26,0-7.23-3.2-8.3-6.37Z"/><path class="cls-6" d="M13.56,41.2a15.62,15.62,0,0,0-2.06,8c0,8,5.08,14.84,16.31,14.84a19.72,19.72,0,0,0,8.89-1.89c.2-.11.39-.22.57-.34A27.3,27.3,0,0,1,13.56,41.2Z"/><path class="cls-7" d="M84.52,50.75c1-4.45-1.83-8.22-6.66-8.5,4.06-2.57,12.57,0,13.91,6.74.59,2.95.39,5.56-.33,6.95a15.26,15.26,0,0,1-23.21,4.87C77.05,60.8,83.34,56.25,84.52,50.75Z"/><path class="cls-8" d="M64.43,34.46H42.75c-3.45,0-3.92,3.28-3.47,6.75h8V52.64c1.07,3.17,6,6.37,8.3,6.37V41.21h5.75C64.65,41.21,64.69,37.39,64.43,34.46Z"/><path class="cls-9" d="M38.87,58.58V48.93a2.74,2.74,0,0,0-3-3h-8a2.52,2.52,0,0,0-2.73,2.33,7.11,7.11,0,0,0,.74,4.05H31v4.44a8.14,8.14,0,0,1-6.1.12C22.3,56,20,53.66,20,49c0-2.81,1.21-8.56,8.65-8.56a14.14,14.14,0,0,1,7,2.08A4,4,0,0,0,37,37c-1.68-2.28-5.18-3.15-9.11-3.15-6.54,0-11.67,2.82-14.35,7.39a27.3,27.3,0,0,0,23.7,20.58A3.39,3.39,0,0,0,38.87,58.58Z"/><path class="cls-10" d="M84.51,50.75s0-.06,0-.09a6.87,6.87,0,1,1-6.68-8.41c4.07-2.57,12.58,0,13.92,6.74.57,2.89.39,5.46-.29,6.86a15.23,15.23,0,0,0-13.63-22.1,15.22,15.22,0,0,0-9.62,27.06C77.05,60.8,83.34,56.25,84.51,50.75Z"/></g></g></svg>