<?xml version="1.0" encoding="utf-8"?>
<!-- Generator: Adobe Illustrator 26.0.3, SVG Export Plug-In . SVG Version: 6.00 Build 0)  -->
<svg version="1.1" id="Capa_1" xmlns="http://www.w3.org/2000/svg" xmlns:xlink="http://www.w3.org/1999/xlink" x="0px" y="0px"
	 viewBox="0 0 1197.7 1065.04" style="enable-background:new 0 0 1197.7 1065.04;" xml:space="preserve">
<style type="text/css">
	.st0{fill:#001E96;}
</style>
<g>
	<g>
		<path class="st0" d="M465.95,966.38c11.22-33.68,22.16-66.51,33.73-101.22c-8.58,0-14.86,0-21.14,0c-123.2,0-246.4,0.1-369.6-0.06
			c-36.78-0.05-68.44-11.73-90.6-42.9C4.97,803.39,0.19,781.85,0.17,759.28c-0.12-217.81-0.36-435.62,0.1-653.43
			C0.41,41.55,43.03,0.15,107.61,0.12c327.3-0.16,654.6-0.15,981.9-0.01c65.55,0.03,107.96,42.56,108.02,108.52
			c0.21,216.22,0.24,432.45-0.02,648.67c-0.08,66.04-42.35,107.73-108.53,107.82c-123.2,0.18-246.4,0.05-369.6,0.05
			c-6.29,0-12.58,0-21.1,0c11.49,34.59,22.38,67.39,33.61,101.21c44.73,0,89.09-0.05,133.46,0.05c7.91,0.02,15.92,0.05,23.72,1.18
			c24.16,3.48,40.93,22.63,41.55,46.71c0.6,23.55-14.25,42.75-37.71,48.09c-6.63,1.51-13.55,2.49-20.33,2.5
			c-182.42,0.13-364.84,0.38-547.26-0.44c-13.86-0.06-29.62-4.96-41.07-12.69c-16.67-11.26-20.57-30.3-15.16-49.76
			c5.28-18.96,18.38-30.62,37.8-34.16c7.73-1.41,15.79-1.39,23.69-1.42C375.48,966.32,420.38,966.38,465.95,966.38z M132.67,731.67
			c311.85,0,621.79,0,932.27,0c0-200.05,0-398.97,0-598.45c-311.17,0-621.19,0-932.27,0C132.67,332.94,132.67,531.86,132.67,731.67z
			"/>
	</g>
	<g>
		<path class="st0" d="M877.56,253.81c-0.94,26.45-7.95,41.58-20.51,54.11C744.61,420,632.42,532.33,519.25,643.66
			c-13.04,12.83-30.54,23.26-47.91,29.19c-40.95,13.97-82.95,25.01-124.83,36.04c-7.32,1.93-18.01,0.37-23.68-4.01
			c-3.71-2.87-3.02-14.24-1.18-20.94c11.07-40.26,23.12-80.24,34.68-120.37c5.78-20.06,15.96-37.21,30.88-52.04
			C499.13,400.3,610.82,288.85,722.65,177.53c29.74-29.6,64.36-29.77,94.03-0.62c14.24,13.99,29.68,27.09,42.01,42.61
			C868.23,231.53,873.76,246.68,877.56,253.81z M664.61,283.01c-0.73,0.52-2.49,1.43-3.82,2.77
			c-77.21,77.03-154.47,154.01-231.3,231.41c-3.6,3.63-5.32,11.3-4.57,16.61c2.39,16.77,5.71,33.5,10.16,49.84
			c1.31,4.83,6.88,10.61,11.66,12c14.9,4.35,30.51,6.24,45.56,10.17c11.27,2.95,18.85-0.27,26.95-8.42
			c61.07-61.48,122.51-122.61,184.09-183.58c15.84-15.68,32.59-30.44,49.28-45.96C721.55,337.9,693.6,310.96,664.61,283.01z
			 M694.31,257.36c24.66,25.32,50.26,51.89,76.41,77.9c1.88,1.87,9.37,1.27,11.65-0.9c17.97-17.07,35.75-34.38,52.67-52.47
			c12.38-13.23,12-27.47-0.25-40.26c-14.45-15.09-29.27-29.85-44.51-44.15c-12.26-11.5-26.03-12.76-37.94-1.28
			C732.13,215.7,713.57,236.89,694.31,257.36z M396.48,562.02c-1.52-0.17-3.03-0.33-4.55-0.5c-10.43,35.44-20.87,70.88-32.27,109.63
			c38.98-11.43,73.83-21.65,108.67-31.87c-0.08-1.43-0.15-2.85-0.23-4.28c-14.04-2.98-27.97-6.69-42.14-8.73
			c-13.4-1.93-19.2-9.32-21.2-21.9C402.5,590.18,399.28,576.13,396.48,562.02z"/>
	</g>
</g>
</svg>
