<?xml version="1.0" encoding="utf-8"?>
<!-- Generator: Adobe Illustrator 26.0.3, SVG Export Plug-In . SVG Version: 6.00 Build 0)  -->
<svg version="1.1" id="Capa_1" xmlns="http://www.w3.org/2000/svg" xmlns:xlink="http://www.w3.org/1999/xlink" x="0px" y="0px"
	 viewBox="0 0 1200 1200" style="enable-background:new 0 0 1200 1200;" xml:space="preserve">
<style type="text/css">
	.st0{fill:#001E96;}
</style>
<path class="st0" d="M1047.49,118.73c-0.3-69.71-47.14-118.28-115.8-118.43c-222.22-0.48-444.45-0.3-666.67-0.01
	c-26.26,0.03-51.11,7.33-72.33,23.39c-32.01,24.21-43.84,58.22-43.97,96.95c-0.26,79.76-0.08,159.52-0.08,239.28
	c0,239.28,0.03,478.56-0.04,717.84c-0.01,28.13,6.13,54.52,22.99,77.29c23.6,31.88,57.42,44.09,95.5,44.5
	c68.64,0.75,137.3,0.21,205.95,0.21c3.77,0,7.54,0,11.91,0c0-6.63,0-11.37,0-16.11c0-54.76-0.95-109.54,0.29-164.27
	c1.09-47.97,19.14-86.97,65.46-108.42c47-21.76,104.35-8.46,135.99,32.34c17.44,22.49,24.23,48.85,24.44,76.78
	c0.41,55.15,0.12,110.31,0.12,165.47c0,4.27,0,8.55,0,14.13c76.17,0,150.37,1.02,224.51-0.45c34.33-0.68,65.17-13.5,87.12-41.9
	c18.21-23.56,24.73-50.89,24.72-80.27c-0.07-234.91-0.04-469.83-0.04-704.74C1047.58,287.77,1047.85,203.25,1047.49,118.73z
	 M447.66,639.15c-1.47,23.18-12.19,33.83-35.5,35.38c-26.01,1.74-52.31,1.73-78.32-0.03c-23.28-1.57-33.85-12.23-35.44-35.47
	c-1.75-25.62-1.88-51.54-0.2-77.16c1.68-25.55,15.2-36.49,41.62-37.51c11.48-0.44,22.98-0.07,34.48-0.07c0,0.29,0,0.58,0,0.87
	c13.05,0,26.25-1.2,39.13,0.27c22.04,2.52,32.44,12.05,33.97,34.24C449.22,586.06,449.33,612.75,447.66,639.15z M447.63,339.24
	c-1.56,23.12-12.26,33.67-35.64,35.27c-25.62,1.75-51.54,1.87-77.16,0.15c-25.51-1.71-36.37-15.28-37.36-41.74
	c-0.41-11.08-0.07-22.19-0.07-33.29c0.31,0,0.62,0,0.94,0c0-13.45-1.23-27.03,0.28-40.31c2.51-22.03,12.09-32.38,34.32-33.88
	c26.4-1.78,53.09-1.86,79.49-0.15c23.12,1.5,33.72,12.25,35.26,35.63C449.41,286.93,449.38,313.23,447.63,339.24z M673.42,633.47
	c-0.36,24.94-11.77,39.56-36.43,41.11c-26.77,1.68-53.83,1.29-80.61-0.56c-21.04-1.45-32.69-15.16-33.34-36.33
	c-0.77-24.93-0.77-49.91-0.03-74.84c0.65-21.88,12.22-35.62,33.89-37.11c26.77-1.84,53.84-2.08,80.61-0.37
	c24.02,1.54,35.38,16.03,35.89,40.38c0.24,11.48,0.04,22.97,0.04,34.46C673.45,611.29,673.58,622.38,673.42,633.47z M673.45,300.68
	c0.01,10.69,0.11,21.39-0.02,32.08c-0.3,25.68-11.74,40.3-36.97,41.86c-26.38,1.63-53.06,1.3-79.44-0.57
	c-21.74-1.55-33.42-15.33-34.02-36.98c-0.69-24.54-0.67-49.12-0.04-73.66c0.58-22.43,12.14-36.33,34.48-37.84
	c26.77-1.81,53.84-1.93,80.61-0.16c23.42,1.55,34.73,15.93,35.34,39.62c0.08,2.97,0.12,5.94,0.14,8.91
	C673.58,282.85,673.44,291.76,673.45,300.68z M898.81,600.98c-0.19,0-0.39,0-0.58,0c0,12.67,1.12,25.46-0.24,37.97
	c-2.54,23.26-12.25,33.95-35.51,35.53c-26,1.77-52.31,1.78-78.32,0.06c-23.33-1.54-34.03-12.17-35.57-35.32
	c-1.74-26.01-1.75-52.31-0.03-78.32c1.55-23.33,12.18-34.03,35.32-35.58c26.01-1.74,52.33-1.85,78.32-0.05
	c24.84,1.72,35.41,15.14,36.53,41.21C899.22,577.97,898.81,589.48,898.81,600.98z M897.75,339.24
	c-1.56,23.12-12.26,33.67-35.64,35.27c-25.62,1.75-51.54,1.87-77.16,0.16c-25.51-1.71-36.37-15.28-37.36-41.74
	c-0.41-11.08-0.07-22.19-0.07-33.29c0.31,0,0.62,0,0.94,0c0-13.45-1.23-27.03,0.28-40.31c2.51-22.03,12.09-32.38,34.32-33.88
	c26.4-1.78,53.09-1.86,79.49-0.15c23.12,1.5,33.72,12.25,35.26,35.63C899.53,286.93,899.5,313.23,897.75,339.24z"/>
</svg>
