<?xml version="1.0" encoding="utf-8"?>
<!-- Generator: Adobe Illustrator 26.0.3, SVG Export Plug-In . SVG Version: 6.00 Build 0)  -->
<svg version="1.1" id="Capa_1" xmlns="http://www.w3.org/2000/svg" xmlns:xlink="http://www.w3.org/1999/xlink" x="0px" y="0px"
	 viewBox="0 0 1200 1200" style="enable-background:new 0 0 1200 1200;" xml:space="preserve">
<style type="text/css">
	.st0{fill:#001E96;}
</style>
<g>
	<path class="st0" d="M39.66,599.6c0-146.47-0.03-292.94,0.02-439.4c0.02-64.5,25.78-114.99,84.83-143
		c21.77-10.33,47.77-16.17,71.89-16.3c219.1-1.21,438.21-0.94,657.32-0.6c92.04,0.14,156.15,64.81,156.7,158.02
		c0.6,102.4,0.15,204.82,0.15,307.22c0,191.12-0.05,382.25,0.02,573.37c0.03,65.28-25.92,116.08-85.62,144.39
		c-21.26,10.08-46.68,15.7-70.25,15.83c-219.7,1.17-439.4,0.99-659.1,0.55c-91.76-0.18-155.51-65.39-155.83-158.87
		c-0.47-136.94-0.12-273.88-0.13-410.82C39.65,619.84,39.65,609.72,39.66,599.6z M525.69,900.62c71.23,0,142.46,0.09,213.69-0.04
		c36.14-0.06,49.79-15.1,46.59-50.65c-0.32-3.56-0.41-7.13-0.76-10.69c-8.39-84.34-74.35-154.22-157.68-160.67
		c-60.78-4.7-122.22-5.91-183.1-2.97c-104.81,5.06-170.66,71.38-180.3,175.49c-3.1,33.45,10.78,49.33,44.3,49.44
		C380.85,900.79,453.27,900.62,525.69,900.62z M524.45,299.49c-80.57,0.59-149.96,70.78-149.37,151.08
		c0.59,80.79,70.59,150.36,150.67,149.77c80.49-0.59,149.96-70.85,149.37-151.08C674.53,368.55,604.46,298.9,524.45,299.49z"/>
	<path class="st0" d="M1088.55,374.31c0-75.08,0-148.52,0-223.7c12.4,0,24.22-1.09,35.77,0.23c23.84,2.73,35.19,14.56,35.57,38.86
		c0.76,48.21,0.78,96.44,0.01,144.65c-0.41,25.98-12.93,38.08-38.55,39.84C1110.86,374.91,1100.27,374.31,1088.55,374.31z"/>
	<path class="st0" d="M1088.44,674.47c0-75.28,0-148.72,0-223.67c12.75,0,24.6-1.13,36.15,0.24c23.79,2.81,34.95,14.66,35.32,39.09
		c0.72,48.21,0.77,96.44-0.02,144.65c-0.42,25.53-13.45,37.93-38.81,39.58C1110.58,675.04,1100.01,674.47,1088.44,674.47z"/>
	<path class="st0" d="M1088.32,974.55c0-75,0-148.03,0-225.21c17.15,1.81,34.11,2.03,50.27,5.77c14.34,3.32,20.6,16.43,20.79,30.17
		c0.68,51.17,1.1,102.37,0.02,153.52c-0.47,22.31-13.74,33.69-36.87,35.6C1111.96,975.27,1101.28,974.55,1088.32,974.55z"/>
</g>
</svg>
