<?xml version="1.0" encoding="utf-8"?>
<!-- Generator: Adobe Illustrator 26.0.3, SVG Export Plug-In . SVG Version: 6.00 Build 0)  -->
<svg version="1.1" id="Capa_1" xmlns="http://www.w3.org/2000/svg" xmlns:xlink="http://www.w3.org/1999/xlink" x="0px" y="0px"
	 viewBox="0 0 1200 1200" style="enable-background:new 0 0 1200 1200;" xml:space="preserve">
<style type="text/css">
	.st0{fill:#001E96;}
</style>
<g>
	<path class="st0" d="M1189.44,224.19c-67.71,0-139.72,0-213,0c0-72.34,0-144.76,0-212.96
		C1046.4,81.16,1118.8,153.56,1189.44,224.19z"/>
	<g>
		<path class="st0" d="M1198.26,319.11c0-5.5-0.49-11.01-0.8-17.79c-7.18,0-12.79,0-18.41,0c-63.7,0-127.4,0.22-191.1-0.2
			c-12.2-0.08-25.01-0.77-36.46-4.49c-35.57-11.54-52.5-37.6-52.64-78.93c-0.22-65.59-0.06-131.18-0.07-196.76c0-5.6,0-11.2,0-19.07
			c-7.66,0-12.81,0-17.97,0c-77.49,0-154.97-0.11-232.46,0.03C572.2,2.04,525.51,48.57,525.47,124.6
			c-0.1,217.2-0.11,434.4,0.15,651.6c0.01,12.22,1.22,24.83,4.38,36.58c15.13,56.36,55.48,85.78,117.17,85.84
			c143.09,0.15,286.18,0.13,429.27,0.01c75.61-0.06,121.78-46.22,121.83-121.83C1198.38,624.24,1198.31,471.68,1198.26,319.11z
			 M894.02,598.58c5.65,19.24,0.2,35.31-13.68,48.3c-11.21,10.48-17.7,22.98-20.5,37.53c-3.8,19.73-15.86,30.52-34.71,35.88
			c-21.52,6.12-18.08,0.77-18.2,23.51c-0.23,42.62-0.07,85.24-0.07,127.86c0.01,3.77,0.01,7.55,0.01,13.41
			c-6.22-3.05-10.56-5.15-14.88-7.3c-21.91-10.91-43.9-21.64-65.63-32.88c-5.91-3.06-10.53-3.35-16.64-0.16
			c-22.94,11.99-46.23,23.31-69.41,34.84c-3.09,1.54-6.29,2.82-11.33,5.06c0-5.62,0-9.69,0-13.75c0-44.75-0.29-89.5,0.23-134.25
			c0.11-9.4-3.03-13.74-11.94-14.97c-23.64-3.28-37.47-17.14-42.14-40.19c-2.93-14.48-9.99-26.3-20.78-36.23
			c-14.26-13.12-18.34-29.26-12.23-47.47c5.07-15.13,4.52-29.92-0.23-44.85c-5.47-17.18-2.04-32.87,10.84-45
			c13.28-12.5,20.71-27.08,24.49-44.74c3.48-16.26,15.12-26.68,31.08-30.37c16.93-3.92,30.74-11.74,42.38-24.64
			c11.66-12.92,26.5-17.7,43.31-11.52c17.01,6.25,33.37,3.43,50.06-1.08c15.25-4.12,28.91-0.36,39.59,11.42
			c12.03,13.28,26.1,22.02,43.98,25.76c17.51,3.65,28.27,15.4,31.77,33.27c2.93,14.99,8.99,28.09,20.69,38.61
			c15.13,13.63,20.27,30.77,13.24,50.15C887.91,569.72,889.8,584.21,894.02,598.58z"/>
		<path class="st0" d="M715.95,482.88c-47.01-0.37-88.39,41.96-88.02,90.04c0.38,47.73,40.37,89.21,86.38,89.55
			c51.08,0.39,92.91-39.66,93.47-89.51C808.31,524.33,766.46,483.28,715.95,482.88z"/>
	</g>
	<g>
		<path class="st0" d="M674.65,975.06c-23.7,0-45.73,2.05-67.21-0.54c-24.19-2.93-49.76-5.99-71.41-16.11
			c-58.7-27.44-85.76-77.24-85.96-141.03c-0.52-165.87-0.17-331.74-0.17-497.61c0-5.57,0-11.14,0-17.26c-4.21-0.5-6.94-1.1-9.67-1.1
			c-107.91-0.04-215.83-0.91-323.73,0.29C47.86,302.46,2.26,348.68,2.06,417.53c-0.66,221.48-0.28,442.95-0.22,664.43
			c0.01,25.86,6.75,49.99,22.22,70.85c24.69,33.3,59.4,45.38,99.61,45.35c143.09-0.11,286.18-0.03,429.26-0.09
			c7.12,0,14.33-0.06,21.33-1.14c46.16-7.08,81.09-30.3,92.73-76.69c6.91-27.56,5.94-57.2,7.46-85.96
			C675.48,1015.01,674.65,995.62,674.65,975.06z M370.44,899.5c5.65,19.24,0.2,35.31-13.68,48.3c-11.21,10.48-17.7,22.98-20.5,37.53
			c-3.8,19.73-15.86,30.52-34.71,35.88c-21.52,6.12-18.08,0.77-18.2,23.51c-0.23,42.62-0.07,85.24-0.07,127.86
			c0.01,3.77,0.01,7.55,0.01,13.41c-6.22-3.05-10.56-5.15-14.88-7.3c-21.91-10.91-43.9-21.64-65.63-32.88
			c-5.91-3.06-10.53-3.35-16.64-0.16c-22.94,11.99-46.23,23.31-69.41,34.84c-3.09,1.54-6.29,2.82-11.33,5.06c0-5.62,0-9.69,0-13.75
			c0-44.75-0.29-89.5,0.23-134.25c0.11-9.4-3.03-13.74-11.94-14.97c-23.64-3.28-37.47-17.14-42.14-40.19
			c-2.93-14.48-9.99-26.3-20.78-36.23c-14.26-13.12-18.34-29.26-12.23-47.47c5.07-15.13,4.52-29.92-0.23-44.85
			c-5.47-17.18-2.04-32.87,10.84-45c13.28-12.5,20.71-27.08,24.49-44.74c3.48-16.26,15.12-26.68,31.08-30.37
			c16.93-3.92,30.74-11.74,42.38-24.64c11.66-12.92,26.5-17.7,43.31-11.52c17.01,6.25,33.37,3.43,50.06-1.08
			c15.25-4.12,28.91-0.36,39.59,11.42c12.03,13.28,26.1,22.02,43.98,25.76c17.51,3.65,28.27,15.4,31.77,33.27
			c2.93,14.99,8.99,28.09,20.69,38.61c15.13,13.63,20.27,30.77,13.24,50.15C364.32,870.63,366.22,885.13,370.44,899.5z"/>
		<path class="st0" d="M192.37,783.79c-47.01-0.37-88.39,41.96-88.02,90.04c0.38,47.73,40.37,89.21,86.38,89.55
			c51.08,0.39,92.91-39.66,93.47-89.51C284.73,825.25,242.88,784.19,192.37,783.79z"/>
	</g>
</g>
</svg>
