<?xml version="1.0" encoding="utf-8"?>
<!-- Generator: Adobe Illustrator 26.0.3, SVG Export Plug-In . SVG Version: 6.00 Build 0)  -->
<svg version="1.1" id="Capa_1" xmlns="http://www.w3.org/2000/svg" xmlns:xlink="http://www.w3.org/1999/xlink" x="0px" y="0px"
	 viewBox="0 0 1200 838.75" style="enable-background:new 0 0 1200 838.75;" xml:space="preserve">
<style type="text/css">
	.st0{fill:#001E96;}
</style>
<g>
	<path class="st0" d="M142.37,323.26c-37.1-13.88-72.37-27.02-107.6-40.29c-11.55-4.35-22.41-9.75-28.54-21.42
		c-14.26-27.11-3.44-55.08,26.43-66.38c28.16-10.66,56.62-20.54,84.96-30.71C262.23,112.59,406.95,61.05,551.36,8.64
		c31.75-11.52,62.04-11.5,93.67-0.1c172.15,62,344.5,123.46,516.8,185.03c18.94,6.77,34.08,16.64,37.66,38.55
		c2.61,16-4.83,34.81-18.87,43.43c-5.8,3.56-12.1,6.51-18.51,8.81c-170.13,60.86-340.44,121.22-510.36,182.66
		c-35.14,12.7-68.19,12.84-103.34,0.02c-111.91-40.83-224.4-80.1-336.54-120.31c-7.83-2.81-11.95-1.53-17.05,4.86
		c-17.61,22.07-30.65,46.38-37.93,73.61c-0.91,3.39,0.45,8.94,2.87,11.43c24.25,24.91,24.91,56.14,1.73,82.84
		c-2.51,2.88-4.07,8.2-3.45,11.95c14.51,87.89,29.44,175.72,44.17,263.58c4.93,29.39-7.15,43.65-36.74,43.71
		c-30.91,0.06-61.82,0.06-92.73,0c-28.63-0.06-41.08-13.71-36.53-41.78c10.66-65.78,21.97-131.45,33.03-197.16
		c3.85-22.9,7.99-45.75,11.35-68.72c0.55-3.75-1.2-8.97-3.75-11.87c-26.9-30.52-20.71-70.85,14.17-91.31
		c2.98-1.75,6.49-4.82,7.2-7.87C106.25,385.45,119.76,353.4,142.37,323.26z"/>
	<path class="st0" d="M268.43,433.04c7.06,2.38,13.5,4.48,19.89,6.71c87.43,30.51,174.77,61.29,262.33,91.41
		c33.88,11.65,68.02,10.99,102.02-1.13c89.02-31.74,178.16-63.17,267.25-94.72c3.54-1.25,7.11-2.39,12.15-4.08
		c1.81,16.1,3.62,31.39,5.23,46.7c7.55,71.62,15.14,143.24,22.46,214.89c1.57,15.43-3.96,29.12-12.55,41.74
		c-17.7,25.99-43.98,40.63-71.47,53.37c-51.71,23.97-106.75,36.23-162.86,43.3c-110.04,13.87-219.19,9.18-326.63-20.03
		c-38.07-10.35-74.59-24.88-106.52-48.65c-20.37-15.16-37.13-34.05-38.87-60.6c-1.08-16.51,2.11-33.34,3.84-49.97
		c7.39-70.87,14.95-141.72,22.47-212.58C267.37,437.61,267.87,435.85,268.43,433.04z"/>
</g>
</svg>
