<?xml version="1.0" encoding="utf-8"?>
<!-- Generator: Adobe Illustrator 26.0.3, SVG Export Plug-In . SVG Version: 6.00 Build 0)  -->
<svg version="1.1" id="Capa_1" xmlns="http://www.w3.org/2000/svg" xmlns:xlink="http://www.w3.org/1999/xlink" x="0px" y="0px"
	 viewBox="0 0 1200 1200" style="enable-background:new 0 0 1200 1200;" xml:space="preserve">
<style type="text/css">
	.st0{fill:#001E96;}
</style>
<path class="st0" d="M449.37,1197.22c-10.4-5.1-17.66-8.61-24.88-12.21c-36.63-18.24-73.41-36.18-109.75-54.98
	c-9.88-5.11-17.6-5.61-27.83-0.27c-38.36,20.05-77.31,38.97-116.07,58.25c-5.16,2.57-10.52,4.72-18.94,8.46c0-9.39,0-16.2,0-23
	c0-74.83-0.48-149.66,0.39-224.48c0.18-15.72-5.07-22.98-19.96-25.04c-39.53-5.48-62.66-28.66-70.46-67.2
	c-4.9-24.22-16.7-43.98-34.74-60.58C3.28,774.23-3.53,747.25,6.68,716.79c8.48-25.3,7.55-50.03-0.39-75
	c-9.14-28.72-3.41-54.97,18.13-75.25c22.2-20.91,34.63-45.29,40.95-74.81c5.82-27.19,25.29-44.61,51.97-50.79
	c28.31-6.55,51.41-19.63,70.87-41.2c19.49-21.61,44.31-29.6,72.42-19.27c28.44,10.45,55.8,5.73,83.71-1.81
	c25.5-6.89,48.35-0.6,66.2,19.1c20.12,22.2,43.65,36.82,73.54,43.07c29.28,6.11,47.28,25.75,53.12,55.64
	c4.9,25.07,15.04,46.97,34.59,64.57c25.3,22.79,33.89,51.45,22.14,83.86c-9.06,25-5.89,49.24,1.17,73.27
	c9.45,32.18,0.33,59.05-22.88,80.76c-18.75,17.53-29.59,38.42-34.28,62.75c-6.36,33-26.52,51.04-58.04,60
	c-35.99,10.23-30.23,1.28-30.43,39.31c-0.38,71.26-0.11,142.53-0.11,213.8C449.37,1181.1,449.37,1187.41,449.37,1197.22z
	 M294.58,825c85.42,0.65,155.36-66.32,156.29-149.67c0.91-81.32-69.07-149.97-153.54-150.64c-78.61-0.62-147.81,70.17-147.19,150.56
	C150.77,755.07,217.65,824.42,294.58,825z"/>
<path class="st0" d="M1193.61,299.27c-97.54,0-194.15,0-291.97,0c0-97.37,0-193.88,0-290.39c1.67-1.7,3.34-3.41,5.02-5.11
	C1002.04,102,1097.42,200.22,1193.61,299.27z"/>
<path class="st0" d="M1197.91,398.66c0-6.94,0-13.88,0-22.7c-8.58,0-14.96,0-21.33,0c-87.92,0-175.83,0.02-263.74-0.01
	c-61.91-0.03-89.13-27.11-89.18-88.89c-0.07-87.9,0.01-175.8-0.06-263.7c0-6.84-0.63-13.68-1.02-21.62c-7.85,0-13.7,0-19.56,0
	c-125.92,0-251.85-0.05-377.78,0.02C348.17,1.8,301.96,47.65,301.67,124.5c-0.21,55.83-0.08,111.66,0.01,167.49
	c0.01,6.08,0.73,12.16,1.2,19.4c64.08-21.85,118.69-11.03,166.37,34.76c9.71,9.33,22.76,16.9,35.64,20.91
	c49.58,15.42,83.54,45.72,100.25,95.14c2.3-1.96,5.27-3.16,8.53-3.16h516.6c7.26,0,13.14,5.88,13.14,13.14s-5.88,13.14-13.14,13.14
	h-516.6c-0.19,0-0.37-0.02-0.55-0.03c3.62,8.87,8.32,17.37,15.83,25.11c15.08,15.53,26.64,32.02,34.5,49.44h466.83
	c7.26,0,13.14,5.88,13.14,13.14v0c0,7.26-5.88,13.14-13.14,13.14H672.27c5.3,23.33,4.42,48.15-3.07,74.45h460.07
	c7.26,0,13.14,5.88,13.14,13.14s-5.88,13.14-13.14,13.14H665.6c0.22,0.97,0.46,1.92,0.75,2.83c8.08,25.27,10.66,49.14,7.85,71.69
	h455.07c7.26,0,13.14,5.88,13.14,13.14s-5.88,13.14-13.14,13.14H668.3c-7.66,23.26-21.57,45.03-41.61,65.41
	c-2.69,2.74-5.23,5.86-7.48,9.2h510.05c7.26,0,13.14,5.88,13.14,13.14v0c0,7.26-5.88,13.14-13.14,13.14h-516.6
	c-1.47,0-2.88-0.25-4.2-0.7c-9.78,29.34-23.64,55.37-45.93,75.22h566.73c7.26,0,13.14,5.88,13.14,13.14v0
	c0,7.26-5.88,13.14-13.14,13.14H528.01c-0.94,2.27-1.51,4.73-1.53,6.73c-0.4,66.45-0.28,132.91-0.28,202.2
	c5.81,0,12.23,0,18.65,0.01c175.82,0,351.65,0.01,527.47-0.01c80.37-0.01,125.55-45.3,125.57-126.1
	C1197.95,847.66,1197.91,623.16,1197.91,398.66z"/>
</svg>
