<?xml version="1.0" encoding="utf-8"?>
<!-- Generator: Adobe Illustrator 26.0.3, SVG Export Plug-In . SVG Version: 6.00 Build 0)  -->
<svg version="1.1" id="Capa_1" xmlns="http://www.w3.org/2000/svg" xmlns:xlink="http://www.w3.org/1999/xlink" x="0px" y="0px"
	 viewBox="0 0 1200 1200" style="enable-background:new 0 0 1200 1200;" xml:space="preserve">
<style type="text/css">
	.st0{fill:#001E96;}
</style>
<g>
	<g>
		<path class="st0" d="M179.72,891.22c-2.19,0.6-5.62,1.2-10.29,1.79c-4.68,0.6-9.3,0.89-13.88,0.89c-4.58,0-8.61-0.35-12.09-1.04
			c-3.48-0.69-6.41-1.94-8.8-3.73c-2.39-1.79-4.18-4.28-5.37-7.46c-1.19-3.18-1.79-7.36-1.79-12.54V711.58
			c2.19-0.4,5.67-0.94,10.45-1.64c4.78-0.69,9.35-1.04,13.73-1.04c4.58,0,8.6,0.35,12.09,1.04c3.48,0.7,6.41,1.94,8.8,3.73
			c2.39,1.79,4.18,4.28,5.37,7.46c1.19,3.19,1.79,7.36,1.79,12.54V891.22z"/>
		<path class="st0" d="M374.88,886.14c-2.79,2.79-6.82,4.92-12.09,6.41c-5.27,1.49-11.59,2.24-18.95,2.24
			c-7.36,0-14.32-1.09-20.89-3.28c-6.56-2.18-11.94-7.46-16.11-15.81l-29.54-60.28c-2.98-6.16-5.67-11.98-8.06-17.46
			c-2.39-5.47-4.97-11.79-7.76-18.95l-1.79,0.3c0.79,10.74,1.24,21.69,1.34,32.82c0.1,11.15,0.15,22.09,0.15,32.83v46.25
			c-2.19,0.6-5.52,1.2-10,1.79c-4.48,0.6-8.91,0.89-13.28,0.89c-4.38,0-8.26-0.29-11.64-0.89c-3.39-0.6-6.17-1.79-8.36-3.58
			c-2.19-1.79-3.88-4.23-5.07-7.31c-1.19-3.08-1.79-7.11-1.79-12.08v-149.2c2.78-3.98,7.06-6.96,12.83-8.95
			c5.77-1.99,11.94-2.98,18.5-2.98c7.36,0,14.37,1.15,21.04,3.43c6.66,2.29,11.98,7.51,15.97,15.67l29.84,60.28
			c2.98,6.17,5.67,11.99,8.06,17.46c2.39,5.47,4.97,11.79,7.76,18.95l1.49-0.3c-0.8-10.74-1.3-21.48-1.49-32.23
			c-0.2-10.74-0.3-21.48-0.3-32.23v-48.34c2.19-0.6,5.52-1.2,10-1.79c4.48-0.59,8.9-0.89,13.28-0.89c8.75,0,15.41,1.54,19.99,4.63
			c4.57,3.09,6.86,9.5,6.86,19.24V886.14z"/>
		<path class="st0" d="M444.7,716.95c3.38-1.99,8.5-3.88,15.37-5.67c6.86-1.79,13.77-2.69,20.74-2.69c9.94,0,18.75,1.44,26.41,4.33
			c7.66,2.88,12.58,7.41,14.77,13.58c3.58,10.35,7.46,22.38,11.64,36.11c4.18,13.73,8.36,27.9,12.54,42.52
			c4.18,14.62,8.25,29.05,12.23,43.27c3.98,14.23,7.46,26.81,10.45,37.75c-2.39,2.79-5.97,5.03-10.74,6.71
			c-4.77,1.69-10.44,2.54-17.01,2.54c-4.77,0-8.8-0.4-12.08-1.2c-3.28-0.8-5.97-1.99-8.06-3.58c-2.09-1.59-3.78-3.68-5.07-6.27
			c-1.3-2.58-2.44-5.57-3.43-8.95l-5.37-20.59h-54.01c-1.59,5.97-3.18,12.14-4.77,18.5c-1.6,6.37-3.18,12.53-4.78,18.5
			c-2.79,0.99-5.72,1.84-8.8,2.54c-3.09,0.69-6.82,1.04-11.19,1.04c-10.15,0-17.66-1.74-22.53-5.22c-4.88-3.48-7.31-8.3-7.31-14.47
			c0-2.78,0.4-5.57,1.19-8.36c0.79-2.79,1.69-6.07,2.69-9.85c1.39-5.37,3.33-12.03,5.82-19.99c2.49-7.96,5.22-16.56,8.21-25.81
			c2.98-9.25,6.16-18.75,9.55-28.5c3.38-9.75,6.56-18.95,9.55-27.6c2.98-8.65,5.72-16.36,8.21-23.13
			C441.37,725.7,443.31,720.53,444.7,716.95z M480.51,755.44c-2.79,8.36-5.92,17.66-9.4,27.9c-3.48,10.25-6.62,20.64-9.4,31.18h37
			c-2.79-10.74-5.62-21.23-8.5-31.48c-2.89-10.25-5.52-19.44-7.91-27.6H480.51z"/>
		<path class="st0" d="M585.85,739.33c0-8.55,2.49-15.32,7.46-20.29c4.97-4.97,11.73-7.46,20.29-7.46h98.47
			c1.39,2.19,2.63,5.07,3.73,8.65c1.09,3.58,1.64,7.36,1.64,11.34c0,7.56-1.64,12.93-4.92,16.11c-3.28,3.19-7.61,4.77-12.98,4.77
			h-62.96v27.76h67.14c1.39,2.19,2.63,5.03,3.73,8.5c1.09,3.48,1.64,7.22,1.64,11.19c0,7.56-1.59,12.93-4.77,16.11
			c-3.18,3.18-7.46,4.77-12.83,4.77h-54.91v31.33h76.69c1.39,2.19,2.63,5.07,3.73,8.65c1.09,3.58,1.64,7.36,1.64,11.34
			c0,7.56-1.64,12.98-4.92,16.26c-3.28,3.28-7.61,4.92-12.98,4.92H613.6c-8.56,0-15.32-2.49-20.29-7.46
			c-4.98-4.97-7.46-11.73-7.46-20.29V739.33z"/>
		<path class="st0" d="M812.05,897.18c-3.38,0-7.36-0.1-11.94-0.3c-4.58-0.2-9.3-0.59-14.17-1.19c-4.88-0.6-9.7-1.34-14.47-2.24
			c-4.77-0.9-9.15-2.13-13.13-3.73c-10.94-4.18-16.41-11.44-16.41-21.78V728.58c0-4.18,1.14-7.41,3.43-9.7
			c2.29-2.29,5.42-4.13,9.4-5.52c6.76-2.39,15.22-4.12,25.36-5.22c10.15-1.09,20.59-1.64,31.33-1.64c25.46,0,45.06,4.28,58.79,12.83
			c13.73,8.56,20.59,21.78,20.59,39.69c0,8.95-2.59,16.66-7.76,23.13c-5.18,6.47-12.14,11.19-20.89,14.18
			c9.95,2.79,18.25,7.86,24.92,15.22c6.66,7.36,10,16.61,10,27.75c0,19.69-7.31,34.27-21.93,43.72
			C860.54,892.46,839.5,897.18,812.05,897.18z M792.65,782.3h21.78c8.55,0,14.77-1.59,18.65-4.77c3.88-3.18,5.82-7.86,5.82-14.03
			c0-5.37-2.24-9.64-6.71-12.83c-4.48-3.18-11.19-4.77-20.14-4.77c-2.98,0-6.42,0.1-10.3,0.3c-3.88,0.2-6.91,0.5-9.1,0.89V782.3z
			 M792.65,855.11c2.78,0.8,6.36,1.34,10.74,1.64c4.37,0.3,8.55,0.45,12.53,0.45c7.96,0,14.57-1.64,19.84-4.92
			c5.27-3.28,7.91-8.41,7.91-15.37c0-6.57-2.19-11.24-6.57-14.03c-4.38-2.79-11.04-4.18-19.99-4.18h-24.47V855.11z"/>
		<path class="st0" d="M957.67,716.95c3.38-1.99,8.5-3.88,15.37-5.67c6.86-1.79,13.77-2.69,20.74-2.69c9.94,0,18.75,1.44,26.41,4.33
			c7.66,2.88,12.58,7.41,14.77,13.58c3.58,10.35,7.46,22.38,11.64,36.11c4.18,13.73,8.36,27.9,12.54,42.52
			c4.18,14.62,8.25,29.05,12.23,43.27c3.98,14.23,7.46,26.81,10.45,37.75c-2.39,2.79-5.97,5.03-10.74,6.71
			c-4.77,1.69-10.44,2.54-17.01,2.54c-4.77,0-8.8-0.4-12.08-1.2c-3.28-0.8-5.97-1.99-8.06-3.58c-2.09-1.59-3.78-3.68-5.07-6.27
			c-1.3-2.58-2.44-5.57-3.43-8.95l-5.37-20.59h-54.01c-1.59,5.97-3.18,12.14-4.77,18.5c-1.6,6.37-3.18,12.53-4.78,18.5
			c-2.79,0.99-5.72,1.84-8.8,2.54c-3.09,0.69-6.82,1.04-11.19,1.04c-10.15,0-17.66-1.74-22.53-5.22c-4.88-3.48-7.31-8.3-7.31-14.47
			c0-2.78,0.4-5.57,1.19-8.36c0.79-2.79,1.69-6.07,2.69-9.85c1.39-5.37,3.33-12.03,5.82-19.99c2.49-7.96,5.22-16.56,8.21-25.81
			c2.98-9.25,6.16-18.75,9.55-28.5c3.38-9.75,6.56-18.95,9.55-27.6c2.98-8.65,5.72-16.36,8.21-23.13
			C954.33,725.7,956.27,720.53,957.67,716.95z M993.48,755.44c-2.79,8.36-5.92,17.66-9.4,27.9c-3.48,10.25-6.62,20.64-9.4,31.18h37
			c-2.79-10.74-5.62-21.23-8.5-31.48c-2.89-10.25-5.52-19.44-7.91-27.6H993.48z"/>
	</g>
	<g>
		<path class="st0" d="M1040.1,1078.57c-2.85,1.58-4.27,3.95-4.27,7.11c0,3.17,1.22,5.74,3.68,7.71c2.45,1.98,6.6,2.96,12.45,2.96
			c2.69,0,5.65-0.27,8.89-0.83c3.24-0.55,5.66-1.3,7.24-2.25v-18.98l-17.08,1.42C1046.58,1076.05,1042.94,1076.99,1040.1,1078.57z"
			/>
		<path class="st0" d="M803.84,1078.57c-2.85,1.58-4.27,3.95-4.27,7.11c0,3.17,1.22,5.74,3.68,7.71c2.45,1.98,6.6,2.96,12.45,2.96
			c2.69,0,5.65-0.27,8.89-0.83c3.24-0.55,5.66-1.3,7.24-2.25v-18.98l-17.08,1.42C810.32,1076.05,806.69,1076.99,803.84,1078.57z"/>
		<path class="st0" d="M3.31,948.04v159.85c0,33.75,27.36,61.11,61.11,61.11h1070.48c33.75,0,61.11-27.36,61.11-61.11V948.04H3.31z
			 M201.69,1118.78c-2.61,2.61-6.05,3.91-10.32,3.91h-69.26c-6.8,0-12.18-1.97-16.13-5.93c-3.95-3.95-5.93-9.33-5.93-16.13v-100.34
			c0-6.79,1.98-12.18,5.93-16.13c3.95-3.95,9.33-5.93,16.13-5.93h78.28c1.1,1.74,2.09,4.03,2.97,6.88c0.87,2.85,1.3,5.85,1.3,9.01
			c0,6.01-1.3,10.28-3.91,12.81c-2.61,2.53-6.05,3.8-10.32,3.8h-50.05v22.06h53.37c1.1,1.74,2.09,4,2.96,6.76
			c0.87,2.77,1.3,5.74,1.3,8.9c0,6.01-1.27,10.28-3.8,12.81c-2.53,2.53-5.93,3.8-10.2,3.8h-43.65v24.91h60.96
			c1.1,1.74,2.09,4.03,2.96,6.88c0.87,2.84,1.3,5.85,1.3,9.01C205.61,1111.86,204.3,1116.17,201.69,1118.78z M333.23,1121.74
			c-1.58,0.48-4.07,0.95-7.47,1.42c-3.4,0.48-6.92,0.71-10.55,0.71c-3.48,0-6.6-0.24-9.37-0.71c-2.77-0.48-5.1-1.42-7-2.85
			c-1.9-1.42-3.36-3.35-4.39-5.81c-1.03-2.45-1.54-5.65-1.54-9.61v-55.98c0-4.9-1.39-8.5-4.15-10.79
			c-2.77-2.29-6.52-3.44-11.27-3.44c-3.16,0-6.29,0.39-9.37,1.19c-3.08,0.79-5.73,1.98-7.95,3.56v82.31
			c-1.58,0.48-4.07,0.95-7.47,1.42c-3.4,0.48-6.92,0.71-10.56,0.71c-3.48,0-6.6-0.24-9.37-0.71c-2.77-0.48-5.1-1.42-7-2.85
			c-1.9-1.42-3.36-3.35-4.39-5.81c-1.03-2.45-1.54-5.65-1.54-9.61v-71.16c0-4.27,0.91-7.74,2.73-10.43
			c1.81-2.69,4.31-5.14,7.47-7.36c5.37-3.8,12.14-6.88,20.28-9.25c8.14-2.37,17.2-3.56,27.16-3.56c17.87,0,31.63,3.92,41.27,11.75
			c9.64,7.83,14.47,18.7,14.47,32.62V1121.74z M437.95,1091.14c2.61,1.74,6.29,2.61,11.03,2.61c2.37,0,4.82-0.2,7.35-0.59
			c2.53-0.39,4.74-0.91,6.64-1.54c1.42,1.74,2.65,3.67,3.68,5.81c1.03,2.13,1.54,4.71,1.54,7.71c0,6.01-2.25,10.91-6.76,14.71
			c-4.51,3.8-12.45,5.69-23.84,5.69c-13.92,0-24.63-3.16-32.14-9.49c-7.51-6.32-11.27-16.61-11.27-30.84V983.69
			c1.74-0.47,4.23-0.98,7.47-1.54c3.24-0.55,6.68-0.83,10.32-0.83c6.96,0,12.37,1.23,16.25,3.68c3.87,2.45,5.81,7.63,5.81,15.53
			v15.18h31.08c0.95,1.74,1.86,3.92,2.73,6.53c0.87,2.61,1.3,5.5,1.3,8.66c0,5.54-1.23,9.53-3.68,11.98
			c-2.45,2.45-5.73,3.68-9.84,3.68h-21.59v35.82C434.04,1086.48,435.34,1089.41,437.95,1091.14z M596.05,1097.31
			c0,7.91-3.32,13.84-9.96,17.79c-5.54,3.48-12.14,6.13-19.81,7.95c-7.67,1.81-16.01,2.73-25.03,2.73c-8.54,0-16.41-0.95-23.6-2.85
			c-7.2-1.89-13.4-4.82-18.62-8.78c-5.22-3.95-9.25-9.05-12.1-15.3c-2.85-6.24-4.27-13.79-4.27-22.65v-67.85
			c1.58-0.47,4.07-0.95,7.47-1.42c3.4-0.47,6.92-0.71,10.56-0.71c3.48,0,6.6,0.24,9.37,0.71c2.77,0.48,5.1,1.42,7,2.85
			c1.9,1.42,3.36,3.36,4.39,5.81c1.03,2.45,1.54,5.66,1.54,9.61v51c0,6.49,1.58,11.11,4.75,13.87c3.16,2.77,7.75,4.16,13.76,4.16
			c3.64,0,6.6-0.32,8.89-0.95c2.29-0.63,4.07-1.26,5.34-1.89v-83.03c1.58-0.47,4.07-0.95,7.47-1.42c3.4-0.47,6.92-0.71,10.55-0.71
			c3.48,0,6.6,0.24,9.37,0.71c2.76,0.48,5.1,1.42,7,2.85c1.9,1.42,3.36,3.36,4.39,5.81c1.03,2.45,1.54,5.66,1.54,9.61V1097.31z
			 M742.88,1120.2c-6.17,3.56-14.71,5.34-25.62,5.34c-9.96,0-18.98-1.46-27.04-4.39c-8.06-2.92-14.99-7.03-20.76-12.33
			c-5.77-5.3-10.24-11.66-13.4-19.1c-3.16-7.43-4.74-15.66-4.74-24.67c0-10.44,1.7-19.57,5.1-27.4c3.4-7.83,8.02-14.27,13.88-19.34
			c5.85-5.06,12.61-8.85,20.28-11.39c7.67-2.53,15.77-3.8,24.31-3.8c11.39,0,20.16,2.06,26.33,6.17c6.17,4.11,9.25,9.41,9.25,15.89
			c0,3-0.71,5.81-2.14,8.42c-1.42,2.61-3.08,4.86-4.98,6.76c-2.69-1.26-5.93-2.49-9.73-3.67c-3.8-1.19-7.91-1.78-12.34-1.78
			c-3.95,0-7.71,0.63-11.27,1.89c-3.56,1.27-6.64,3.13-9.25,5.57c-2.61,2.46-4.71,5.5-6.29,9.14c-1.58,3.64-2.37,7.91-2.37,12.81
			c0,9.8,2.81,17.16,8.42,22.06c5.61,4.9,12.45,7.35,20.52,7.35c4.75,0,8.85-0.55,12.34-1.66c3.48-1.1,6.56-2.29,9.25-3.56
			c3.16,2.21,5.53,4.63,7.12,7.24c1.58,2.61,2.37,5.73,2.37,9.37C752.13,1111.63,749.05,1116.65,742.88,1120.2z M870.74,1099.68
			c0,4.11-1.15,7.47-3.44,10.08c-2.29,2.61-5.02,4.86-8.18,6.76c-10.28,6.17-24.75,9.25-43.41,9.25c-8.38,0-15.93-0.79-22.65-2.37
			c-6.72-1.58-12.49-3.95-17.32-7.12c-4.83-3.16-8.54-7.19-11.15-12.1c-2.61-4.9-3.91-10.59-3.91-17.08
			c0-10.91,3.24-19.29,9.73-25.14c6.48-5.85,16.52-9.49,30.13-10.91l31.08-3.32v-1.66c0-4.59-2.02-7.86-6.05-9.84
			c-4.03-1.98-9.84-2.96-17.44-2.96c-6.01,0-11.86,0.63-17.55,1.89c-5.69,1.27-10.83,2.85-15.42,4.75c-2.06-1.42-3.8-3.6-5.22-6.53
			c-1.42-2.92-2.13-5.96-2.13-9.13c0-4.11,0.99-7.39,2.96-9.84c1.98-2.45,5.02-4.54,9.13-6.29c4.59-1.74,10-3,16.25-3.8
			c6.24-0.79,12.13-1.19,17.67-1.19c8.54,0,16.33,0.87,23.37,2.61c7.03,1.74,13.05,4.39,18.03,7.95c4.98,3.56,8.81,8.06,11.5,13.52
			c2.69,5.46,4.03,11.9,4.03,19.33V1099.68z M973.21,1115.82c-9.01,6.79-22.3,10.2-39.85,10.2c-6.64,0-12.81-0.48-18.5-1.42
			c-5.69-0.95-10.55-2.41-14.59-4.39c-4.03-1.98-7.2-4.47-9.49-7.47c-2.3-3-3.44-6.56-3.44-10.68c0-3.8,0.79-7,2.37-9.61
			c1.58-2.61,3.48-4.78,5.7-6.52c4.58,2.53,9.84,4.78,15.77,6.76c5.93,1.98,12.77,2.96,20.52,2.96c4.9,0,8.66-0.71,11.27-2.13
			c2.61-1.42,3.91-3.32,3.91-5.69c0-2.21-0.95-3.95-2.85-5.22c-1.9-1.27-5.06-2.29-9.49-3.09l-7.12-1.42
			c-13.76-2.69-24-6.92-30.72-12.69c-6.72-5.77-10.08-14.03-10.08-24.79c0-5.85,1.26-11.15,3.8-15.89
			c2.53-4.74,6.09-8.69,10.68-11.86c4.59-3.16,10.08-5.61,16.49-7.36c6.41-1.74,13.48-2.61,21.23-2.61c5.85,0,11.35,0.44,16.49,1.31
			c5.14,0.87,9.61,2.17,13.4,3.91c3.8,1.74,6.8,4,9.01,6.76c2.21,2.77,3.32,6.04,3.32,9.84c0,3.64-0.68,6.76-2.02,9.37
			c-1.35,2.61-3.05,4.78-5.1,6.52c-1.27-0.79-3.17-1.62-5.69-2.49c-2.53-0.87-5.3-1.66-8.3-2.38c-3-0.71-6.05-1.3-9.13-1.78
			c-3.09-0.47-5.9-0.71-8.42-0.71c-5.22,0-9.25,0.59-12.1,1.78c-2.85,1.19-4.27,3.05-4.27,5.57c0,1.74,0.79,3.17,2.37,4.27
			c1.58,1.11,4.59,2.13,9.01,3.08l7.35,1.66c15.18,3.48,25.98,8.26,32.38,14.35c6.4,6.09,9.61,13.95,9.61,23.6
			C986.73,1099.61,982.22,1109.02,973.21,1115.82z M1106.99,1099.68c0,4.11-1.15,7.47-3.44,10.08c-2.29,2.61-5.02,4.86-8.18,6.76
			c-10.28,6.17-24.75,9.25-43.41,9.25c-8.38,0-15.93-0.79-22.65-2.37c-6.72-1.58-12.49-3.95-17.32-7.12
			c-4.83-3.16-8.54-7.19-11.15-12.1c-2.61-4.9-3.91-10.59-3.91-17.08c0-10.91,3.24-19.29,9.73-25.14
			c6.48-5.85,16.52-9.49,30.13-10.91l31.08-3.32v-1.66c0-4.59-2.02-7.86-6.05-9.84c-4.03-1.98-9.84-2.96-17.44-2.96
			c-6.01,0-11.86,0.63-17.55,1.89c-5.69,1.27-10.83,2.85-15.42,4.75c-2.06-1.42-3.8-3.6-5.22-6.53c-1.42-2.92-2.13-5.96-2.13-9.13
			c0-4.11,0.99-7.39,2.96-9.84c1.98-2.45,5.02-4.54,9.13-6.29c4.59-1.74,10-3,16.25-3.8c6.24-0.79,12.13-1.19,17.67-1.19
			c8.54,0,16.33,0.87,23.37,2.61c7.03,1.74,13.05,4.39,18.03,7.95c4.98,3.56,8.81,8.06,11.5,13.52c2.69,5.46,4.03,11.9,4.03,19.33
			V1099.68z"/>
	</g>
	<path class="st0" d="M1077.33,400.27v-97.63l-78.73-12.17v65.23l-398.94-225.9L3.31,467.48v434.5h78.73V518.09l0.3-0.18l249.9,56.2
		l0.32,0.33l0.64-0.12l0.53,0.12l0.27-0.27l265.27-48.99l265.27,48.99l0.27,0.27l0.53-0.12l0.64,0.12l0.32-0.34l250.47-56.33
		l0.52,0.31v383.89h78.73v-434.5L1077.33,400.27z M864.68,542.12L601.33,494.5l0.01-0.75l-2.07,0.37l-2.07-0.37l0.01,0.75
		l-263.36,47.62l-214.72-45.69l283.24-165.36c26.39,39.88,104.73,68.81,197.29,68.81s170.9-28.92,197.29-68.81l283.03,165.23
		L864.68,542.12z"/>
	<g id="_x34_w8Aa8.tif_2_">
		<g>
			<path class="st0" d="M1038.49,31.01c25.48,0.08,50.08,4.66,73.89,13.88c21.64,8.38,41.25,20.05,58.71,35.27
				c6.75,5.88,13.17,12.18,19.44,18.59c8.09,8.27,7.83,21.13-0.25,29.53c-7.77,8.08-20.79,8.67-29.29,1.09
				c-7.72-6.89-14.9-14.42-22.91-20.94c-15.13-12.32-32.21-21.2-50.84-27.12c-25.9-8.24-52.2-9.64-78.85-4.81
				c-20.85,3.78-40.12,11.74-57.91,23.16c-13.11,8.41-24.44,18.98-35.11,30.26c-4.5,4.76-9.42,8.59-16.33,9.21
				c-7.87,0.71-16.6-3.63-20.23-10.41c-4.62-8.64-4.31-17.33,1.58-23.91c14.44-16.14,30.44-30.53,48.79-42.18
				c16.15-10.26,33.4-18.09,51.75-23.43C999.71,33.72,1018.9,30.9,1038.49,31.01z"/>
			<path class="st0" d="M1043.81,108.44c17.08,0.83,33.26,5.01,48.56,12.27c17.42,8.27,32.05,20.34,44.46,35.01
				c7.37,8.71,7.04,20.38-0.34,29.72c-6.2,7.85-18.33,10.82-27.55,5.57c-5.54-3.15-10.27-7.9-14.93-12.37
				c-20.73-19.88-44.9-27.07-73.01-20.39c-15.62,3.72-28.02,12.58-39.04,23.9c-4.5,4.62-9.24,9.31-14.67,12.66
				c-8.63,5.32-20.68,2.78-27.54-4.7c-7.1-7.75-8.7-19.86-2.63-28.13c4.58-6.24,10.25-11.73,15.83-17.15
				c7.27-7.08,15.17-13.37,23.94-18.62c14.13-8.47,29.31-13.88,45.56-16.15C1029.5,109.07,1036.68,108.95,1043.81,108.44z"/>
			<path class="st0" d="M1074.14,235.11c-0.09,20.5-17.17,37.42-37.5,37.12c-20.74-0.3-37.32-16.96-37.23-37.43
				c0.09-20.4,17.02-37.33,37.38-37.38C1057.31,197.38,1074.23,214.45,1074.14,235.11z"/>
		</g>
	</g>
</g>
</svg>
