<?xml version="1.0" encoding="utf-8"?>
<!-- Generator: Adobe Illustrator 26.0.3, SVG Export Plug-In . SVG Version: 6.00 Build 0)  -->
<svg version="1.1" id="Capa_1" xmlns="http://www.w3.org/2000/svg" xmlns:xlink="http://www.w3.org/1999/xlink" x="0px" y="0px"
	 viewBox="0 0 1200 1200" style="enable-background:new 0 0 1200 1200;" xml:space="preserve">
<style type="text/css">
	.st0{fill:#001E96;}
</style>
<g>
	<path class="st0" d="M660.91,540.27c5.35,0,10.19,0,15.04,0c151.68,0,303.37-0.03,455.05,0.04c16.88,0.01,33.4,1.36,47.25,13.07
		c20.76,17.54,25.41,39.9,19.2,64.93c-4.62,18.61-25,39.81-50.01,40.28c-6.08,0.11-12.15,1.02-18.22,1.03
		c-51.45,0.09-102.9,0.05-154.35,0.05c-4.48,0-8.96,0-14.11,0c0,20.35,0,39.57,0,60.44c7.88,0,15.72-0.09,23.56,0.02
		c24.74,0.35,49.78-1.5,74.17,1.64c51.42,6.63,81.12,41.35,81.63,93.11c0.56,56.67,0.65,113.36-0.02,170.04
		c-0.66,56.15-38.58,93.48-94.84,93.68c-96.42,0.34-192.85,0.35-289.27,0c-57.79-0.21-95.02-37.93-95.15-95.43
		c-0.12-55.54-0.11-111.08,0-166.62c0.11-58.42,38.11-96.24,96.76-96.42c27.03-0.08,54.06-0.01,82.21-0.01c0-20.09,0-39.52,0-59.71
		c-159.77,0-319.26,0-479.57,0c0,19.58,0,38.79,0,59.71c8.12,0,15.96-0.12,23.8,0.02c25.49,0.47,51.22-0.96,76.43,2.01
		c47.31,5.56,78.23,40.65,78.86,88.28c0.79,59.33,0.73,118.69,0.02,178.02c-0.59,49.91-35.57,86.53-85.44,89.56
		c-25.06,1.52-50.28,0.65-75.43,0.67c-73.94,0.06-147.87,0.2-221.81-0.06c-38.86-0.13-70.36-14.52-86.66-51.51
		c-5.96-13.52-9.17-29.25-9.46-44.06c-1.08-55.52-0.67-111.07-0.37-166.61c0.32-58.31,38.71-96.16,97.14-96.32
		c27.04-0.07,54.07-0.01,82.04-0.01c0-20.01,0-39.49,0-60.44c-4.58,0-9.02,0-13.45,0c-52.98,0-105.95-0.12-158.93,0.06
		c-22.48,0.07-42.37-5.43-55.81-24.86c-13.2-19.09-14.46-39.94-5.11-60.65c8.49-18.79,23.37-30.59,44.69-32.55
		c7.95-0.73,15.94-1.34,23.92-1.34c149.78-0.08,299.56-0.06,449.34-0.06c4.88,0,9.77,0,15.5,0c0-20.19,0-39.41,0-60.44
		c-4.16,0-8.56,0.08-12.96-0.01c-29.68-0.61-59.51,0.41-89-2.3c-40.18-3.69-71.12-36.39-75.82-76.57c-0.66-5.65-1-11.38-1-17.07
		c-0.07-55.54-0.25-111.08,0.01-166.61c0.28-58.62,37.18-95.75,95.76-95.93c96.04-0.29,192.08-0.31,288.12,0.01
		c57.3,0.19,94.48,37.17,94.95,94.39c0.46,56.68,0.48,113.36-0.01,170.04c-0.49,56.5-38.8,93.81-95.61,94.04
		c-27.38,0.11-54.77,0.02-83.05,0.02C660.91,499.79,660.91,518.97,660.91,540.27z M480.27,360.05c80.73,0,160.07,0,239.61,0
		c0-40.19,0-79.52,0-118.96c-80.3,0-159.92,0-239.61,0C480.27,281.09,480.27,320.15,480.27,360.05z M180.49,958.77
		c80.13,0,159.82,0,239.62,0c0-40.07,0-79.12,0-118.97c-80.02,0-159.45,0-239.62,0C180.49,879.75,180.49,919.08,180.49,958.77z
		 M1020.06,840.09c-80.27,0-159.96,0-239.37,0c0,40.41,0,79.74,0,118.76c80.45,0,159.89,0,239.37,0
		C1020.06,918.81,1020.06,879.71,1020.06,840.09z"/>
</g>
</svg>
