<?xml version="1.0" encoding="utf-8"?>
<!-- Generator: Adobe Illustrator 26.0.3, SVG Export Plug-In . SVG Version: 6.00 Build 0)  -->
<svg version="1.1" id="Capa_1" xmlns="http://www.w3.org/2000/svg" xmlns:xlink="http://www.w3.org/1999/xlink" x="0px" y="0px"
	 viewBox="0 0 1200 1200" style="enable-background:new 0 0 1200 1200;" xml:space="preserve">
<style type="text/css">
	.st0{fill:#001E96;}
</style>
<path class="st0" d="M1199.78,576.62c-0.02-10.91-1.3-22.1-3.93-32.68c-12-48.42-49.63-76.91-101.47-77.17
	c-49.11-0.24-98.21-0.05-147.32-0.05c-4.41,0-8.82,0-13.86,0c0-7.29,0-12.36,0-17.43c0-91.18,0.07-182.36-0.04-273.54
	c-0.03-25.09-5.19-48.93-20.55-69.42c-22.18-29.6-53.04-40.18-88.84-40.15c-149.01,0.12-298.03,0.04-447.04,0.08
	c-5.49,0-11,0.25-16.48,0.69c-49.9,3.98-87.11,39.07-91.42,89.32c-2.67,31.16-1.5,62.65-2.03,93.99c-0.08,4.92-0.01,9.83-0.01,15.93
	c-6.37,0-10.94,0-15.51,0c-47.41,0-94.87-1.17-142.22,0.58c-18.92,0.7-39.26,4.46-56.08,12.71c-38.66,18.96-52.76,54.47-52.81,95.66
	c-0.28,216.71-0.18,433.42,0.02,650.13c0.01,10.49,1.07,21.29,3.7,31.41c12.95,49.79,49.71,76.96,104.1,77.02
	c136.74,0.16,273.47,0.06,410.21,0.02c4.48,0,8.96-0.47,14.43-0.77c0-5.84,0-10.43,0-15.02c0-58.1-0.06-116.2,0.08-174.3
	c0.02-7.6,0.48-15.29,1.74-22.77c5.5-32.73,31.19-53.81,65.28-54.02c34.36-0.21,60.54,21.4,65.85,54.8
	c1.26,7.91,1.67,16.02,1.68,24.05c0.13,61.88,0.07,123.75,0.07,187.21c5.26,0.35,8.97,0.82,12.68,0.82
	c137.58,0.04,275.17,0.23,412.75-0.06c65.21-0.14,107.04-42.46,107.12-107.92C1200.06,876.03,1200.03,726.32,1199.78,576.62z
	 M266.51,666.74c0,11.86,0.57,23.76-0.13,35.58c-1.18,19.89-12.85,31.16-32.61,31.5c-22.84,0.39-45.69,0.44-68.53-0.04
	c-19.07-0.4-31.09-11.69-31.77-30.89c-0.85-24.12-0.8-48.31,0-72.43c0.55-16.68,9.76-28.13,26.27-29.14
	c26.88-1.65,54.02-1.58,80.9,0.1c15.73,0.98,24.51,12.44,25.59,28.47c0.82,12.23,0.16,24.56,0.16,36.84
	C266.43,666.74,266.47,666.74,266.51,666.74z M266.48,902.09c-1.02,19.69-12.44,31.63-32.07,32.3c-22.82,0.78-45.69,0.74-68.51,0.05
	c-20.3-0.61-32.05-12.57-32.65-33.02c-0.65-22.02-0.6-44.07-0.13-66.1c0.47-22.02,11.29-33.98,33.46-35.18
	c21.93-1.18,44.01-1.11,65.96-0.07c22.61,1.07,33.41,13.17,34.15,35.92c0.34,10.58,0.06,21.19,0.06,31.78c-0.05,0-0.1,0-0.15,0
	C266.59,879.22,267.07,890.68,266.48,902.09z M266.4,501.37c-0.64,20.2-12.06,31.05-32.08,31.84c-11.82,0.46-23.67,0.08-35.51,0.08
	c0-0.05,0-0.09,0-0.14c-11.84,0-23.7,0.52-35.51-0.12c-17.42-0.95-28.9-11.28-29.63-28.7c-1.05-24.94-1.01-49.98-0.08-74.93
	c0.64-17.22,11.61-28.4,29.29-29.25c24.46-1.18,49.05-1.2,73.51-0.05c18.66,0.88,29.33,12.54,29.95,31.4
	C267.12,454.77,267.14,478.1,266.4,501.37z M532.94,703.33c-0.75,19.11-12.94,29.92-32.16,30.52c-11.41,0.35-22.84,0.06-34.26,0.06
	c0-0.02,0-0.03,0-0.05c-11.84,0-23.71,0.43-35.53-0.1c-17.82-0.8-29.86-11.55-30.58-29.34c-1.01-24.95-0.94-50-0.06-74.96
	c0.57-15.93,9.93-27.14,25.88-28.11c26.89-1.63,54.02-1.66,80.9,0.04c16.25,1.03,25.39,12.74,25.9,29.51
	C533.78,655.02,533.89,679.21,532.94,703.33z M533.08,501.95c-0.68,19.97-12.36,30.59-32.6,31.31c-11.4,0.41-22.83,0.07-34.25,0.07
	c0-0.07,0-0.15,0-0.22c-12.26,0-24.55,0.57-36.77-0.14c-16.77-0.97-28.22-11.17-28.96-27.96c-1.12-25.36-1.07-50.83-0.1-76.19
	c0.64-16.61,11.5-27.72,28.54-28.58c24.87-1.25,49.89-1.27,74.77-0.07c18.05,0.88,28.66,12.47,29.3,30.64
	C533.85,454.5,533.89,478.26,533.08,501.95z M533.17,300.76c-0.63,19.68-11.01,31-30.7,31.97c-24.03,1.18-48.22,1.19-72.25-0.1
	c-19.59-1.05-29.34-12.48-30.27-32.4c-0.56-11.84-0.1-23.72-0.12-35.58c-0.02-10.59-0.39-21.2,0.06-31.77
	c0.87-20.61,11.82-32.85,32.08-33.69c23.22-0.97,46.55-1.01,69.76,0.05c19.72,0.91,30.9,13,31.46,32.9
	C533.85,255,533.91,277.91,533.17,300.76z M666.74,232.48c0.56-20.47,12.03-32.54,32.4-33.34c22.8-0.89,45.7-0.9,68.5,0
	c20.34,0.8,31.49,12.9,32.41,33.4c0.51,11.42,0.09,22.87,0.09,34.31c-0.06,0-0.12,0-0.18,0c0,11.86,0.65,23.76-0.15,35.57
	c-1.21,17.92-10.72,28.94-28.48,29.92c-24.85,1.37-49.89,1.47-74.75,0.2c-19.47-1-29.32-12.61-29.86-32.7
	C666.11,277.4,666.12,254.92,666.74,232.48z M666.85,431.52c0.58-18.79,11.27-30.53,29.94-31.42c24.46-1.16,49.05-1.16,73.51,0.05
	c18.11,0.89,28.81,12.37,29.44,30.5c0.84,24.11,0.9,48.3-0.03,72.4c-0.72,18.73-12.27,29.25-31.04,30.1
	c-11.81,0.53-23.67,0.1-35.51,0.1c0,0.02,0,0.04,0,0.06c-11.42,0-22.85,0.37-34.25-0.08c-20.03-0.79-31.44-11.63-32.09-31.83
	C666.1,478.12,666.13,454.79,666.85,431.52z M799.82,702.18c-0.71,20.4-12.98,31.28-33.68,31.71c-10.99,0.23-22,0.04-33,0.04
	c-11.42-0.04-22.85,0.28-34.26-0.11c-19.14-0.65-31.2-11.62-31.89-30.8c-0.87-24.12-0.81-48.31-0.03-72.43
	c0.54-16.71,9.71-28.19,26.15-29.26c26.46-1.72,53.18-1.78,79.65-0.13c17.21,1.07,26.48,12.54,27.05,29.81
	C800.57,654.72,800.65,678.49,799.82,702.18z M933.72,630.46c0.55-16.68,9.76-28.13,26.27-29.14c26.88-1.65,54.02-1.58,80.9,0.1
	c15.73,0.98,24.51,12.44,25.59,28.47c0.82,12.23,0.16,24.56,0.16,36.84c0.04,0,0.07,0,0.11,0c0,11.86,0.57,23.76-0.13,35.58
	c-1.18,19.89-12.85,31.16-32.61,31.5c-22.84,0.39-45.69,0.44-68.53-0.04c-19.07-0.4-31.09-11.69-31.77-30.89
	C932.88,678.77,932.92,654.58,933.72,630.46z M1067,868.2c-0.07,0-0.13,0-0.2,0c0,11.44,0.51,22.91-0.11,34.31
	c-1.05,19.11-12.19,31.08-31.17,31.8c-23.65,0.9-47.39,0.93-71.04-0.03c-18.95-0.77-30.26-12.82-30.9-32
	c-0.73-22.01-0.63-44.07-0.24-66.09c0.41-23.24,11.85-35.3,35.16-36.2c21.12-0.82,42.32-0.85,63.43,0.02
	c23.22,0.95,34.32,13.05,35.01,36.42C1067.26,847,1067,857.6,1067,868.2z"/>
</svg>
