<?xml version="1.0" encoding="utf-8"?>
<!-- Generator: Adobe Illustrator 26.0.3, SVG Export Plug-In . SVG Version: 6.00 Build 0)  -->
<svg version="1.1" id="Capa_1" xmlns="http://www.w3.org/2000/svg" xmlns:xlink="http://www.w3.org/1999/xlink" x="0px" y="0px"
	 viewBox="0 0 1200 1200" style="enable-background:new 0 0 1200 1200;" xml:space="preserve">
<style type="text/css">
	.st0{fill:#001E96;}
</style>
<g>
	<path class="st0" d="M600.33,1078.24c-100.84,0-201.68,0.01-302.52,0c-41.47-0.01-58.74-20.39-56.28-61.8
		c6.84-115.13,99.75-208.87,205.59-227.92c16.32-2.94,33.05-4.83,49.61-4.97c68.52-0.55,137.05-0.24,205.58-0.23
		c118.2,0.01,219.33,76.8,249.73,190.51c4.41,16.48,6.62,33.85,7.39,50.91c1.52,33.89-17.56,53.19-51.56,53.38
		c-51.25,0.3-102.51,0.1-153.77,0.1S651.58,1078.24,600.33,1078.24z"/>
	<path class="st0" d="M600.22,332.71c108.05-0.23,192.11,83.03,191.99,190.83c-0.11,105.32-75.81,195.64-193.44,194.99
		c-112.07-0.62-187.28-84.58-190.44-185.11C404.79,420.98,492.76,328.92,600.22,332.71z"/>
	<path class="st0" d="M239.58,418.25c-83.5,0.17-150.33-64.5-149.11-147.05c1.29-87.63,58.67-148.9,148.03-149.3
		c88.29-0.39,147.26,59.85,149.05,148.22C389.23,352.96,322.85,418.08,239.58,418.25z"/>
	<path class="st0" d="M813.31,269.43c0-81.13,57.48-147.54,147.86-147.73c90.23-0.19,149.15,66.53,148.48,150.53
		c-0.65,82.94-65.16,146.37-149.63,146.01C876.23,417.89,813.22,353.98,813.31,269.43z"/>
	<path class="st0" d="M803.64,688.73c14.17-29.36,28.58-56.13,40.16-84.06c12.51-30.18,15.37-62.5,12.14-94.88
		c-1.2-12.05,2.85-17.65,13.68-20.07c11.92-2.67,23.84-7.38,35.8-7.52c49.49-0.56,99.22-2.56,148.45,1.24
		c84.83,6.55,144.47,83.57,146.12,165.42c0.49,24.24-9,35.76-33.12,39.6c-6.01,0.96-12.18,1.15-18.28,1.16
		c-109.16,0.07-218.31,0.06-327.47,0.01C815.17,689.62,809.24,689.03,803.64,688.73z"/>
	<path class="st0" d="M401.41,688.18c-10.35,0.66-16.86,1.43-23.38,1.44c-108.11,0.07-216.23,0.09-324.34-0.03
		c-7.76-0.01-15.59-0.71-23.26-1.91c-19.89-3.13-30.87-14.92-30.42-35.27C2,562.27,65.37,484.79,163.18,481.26
		c40.63-1.47,81.35-0.34,122.04-0.16c6.06,0.03,12.18,1.01,18.17,2.09c38.73,6.95,37.89,7.02,39.21,44.92
		c1.8,51.56,15.88,99.53,46.32,142C392.43,675.01,395.77,680.01,401.41,688.18z"/>
</g>
</svg>
